<?xml version="1.0" encoding="UTF-8" standalone="no"?>
<!-- Created with Inkscape (http://www.inkscape.org/) -->

<svg
   xmlns:dc="http://purl.org/dc/elements/1.1/"
   xmlns:cc="http://creativecommons.org/ns#"
   xmlns:rdf="http://www.w3.org/1999/02/22-rdf-syntax-ns#"
   xmlns:svg="http://www.w3.org/2000/svg"
   xmlns="http://www.w3.org/2000/svg"
   xmlns:sodipodi="http://sodipodi.sourceforge.net/DTD/sodipodi-0.dtd"
   xmlns:inkscape="http://www.inkscape.org/namespaces/inkscape"
   width="245.08624mm"
   height="245.08624mm"
   viewBox="0 0 245.08624 245.08625"
   version="1.1"
   id="svg8"
   inkscape:version="0.92.3 (2405546, 2018-03-11)"
   sodipodi:docname="bagage-plus.svg">
  <defs
     id="defs2">
    <inkscape:path-effect
       effect="bspline"
       id="path-effect1143"
       is_visible="true"
       weight="33.333333"
       steps="2"
       helper_size="0"
       apply_no_weight="true"
       apply_with_weight="true"
       only_selected="false" />
    <inkscape:path-effect
       effect="bspline"
       id="path-effect1058"
       is_visible="true"
       weight="33.333333"
       steps="2"
       helper_size="0"
       apply_no_weight="true"
       apply_with_weight="true"
       only_selected="false" />
    <inkscape:path-effect
       effect="spiro"
       id="path-effect1008"
       is_visible="true" />
    <inkscape:path-effect
       effect="bspline"
       id="path-effect974"
       is_visible="true"
       weight="33.333333"
       steps="2"
       helper_size="0"
       apply_no_weight="true"
       apply_with_weight="true"
       only_selected="false" />
    <inkscape:path-effect
       effect="bspline"
       id="path-effect970"
       is_visible="true"
       weight="33.333333"
       steps="2"
       helper_size="0"
       apply_no_weight="true"
       apply_with_weight="true"
       only_selected="false" />
    <inkscape:path-effect
       effect="bspline"
       id="path-effect966"
       is_visible="true"
       weight="33.333333"
       steps="2"
       helper_size="0"
       apply_no_weight="true"
       apply_with_weight="true"
       only_selected="false" />
    <inkscape:path-effect
       effect="spiro"
       id="path-effect819"
       is_visible="true" />
    <inkscape:path-effect
       effect="spiro"
       id="path-effect819-3"
       is_visible="true" />
    <inkscape:path-effect
       effect="bspline"
       id="path-effect974-6"
       is_visible="true"
       weight="33.333333"
       steps="2"
       helper_size="0"
       apply_no_weight="true"
       apply_with_weight="true"
       only_selected="false" />
    <inkscape:path-effect
       effect="bspline"
       id="path-effect1143-3"
       is_visible="true"
       weight="33.333333"
       steps="2"
       helper_size="0"
       apply_no_weight="true"
       apply_with_weight="true"
       only_selected="false" />
  </defs>
  <sodipodi:namedview
     id="base"
     pagecolor="#ffffff"
     bordercolor="#666666"
     borderopacity="1.0"
     inkscape:pageopacity="0.0"
     inkscape:pageshadow="2"
     inkscape:zoom="0.68227686"
     inkscape:cx="286.72641"
     inkscape:cy="463.15509"
     inkscape:document-units="mm"
     inkscape:current-layer="layer1"
     showgrid="false"
     inkscape:window-width="1533"
     inkscape:window-height="845"
     inkscape:window-x="67"
     inkscape:window-y="27"
     inkscape:window-maximized="1"
     showguides="false" />
  <metadata
     id="metadata5">
    <rdf:RDF>
      <cc:Work
         rdf:about="">
        <dc:format>image/svg+xml</dc:format>
        <dc:type
           rdf:resource="http://purl.org/dc/dcmitype/StillImage" />
        <dc:title></dc:title>
      </cc:Work>
    </rdf:RDF>
  </metadata>
  <g
     inkscape:label="Camada 1"
     inkscape:groupmode="layer"
     id="layer1"
     transform="translate(195.48209,-21.159303)">
    <path
       style="color:#000000;font-style:normal;font-variant:normal;font-weight:normal;font-stretch:normal;font-size:medium;line-height:normal;font-family:sans-serif;font-variant-ligatures:normal;font-variant-position:normal;font-variant-caps:normal;font-variant-numeric:normal;font-variant-alternates:normal;font-feature-settings:normal;text-indent:0;text-align:start;text-decoration:none;text-decoration-line:none;text-decoration-style:solid;text-decoration-color:#000000;letter-spacing:normal;word-spacing:normal;text-transform:none;writing-mode:lr-tb;direction:ltr;text-orientation:mixed;dominant-baseline:auto;baseline-shift:baseline;text-anchor:start;white-space:normal;shape-padding:0;clip-rule:nonzero;display:inline;overflow:visible;visibility:visible;opacity:1;isolation:auto;mix-blend-mode:normal;color-interpolation:sRGB;color-interpolation-filters:linearRGB;solid-color:#000000;solid-opacity:1;vector-effect:none;fill:#0c1021;fill-opacity:1;fill-rule:nonzero;stroke:none;stroke-width:5.76111126;stroke-linecap:round;stroke-linejoin:miter;stroke-miterlimit:4;stroke-dasharray:none;stroke-dashoffset:0;stroke-opacity:1;color-rendering:auto;image-rendering:auto;shape-rendering:auto;text-rendering:auto;enable-background:accumulate"
       d="m -68.46831,21.161567 c -4.537736,-0.06154 -9.048689,1.129561 -12.901658,3.428742 -3.853196,2.299319 -6.961101,5.660786 -8.844369,9.625694 -2.883245,6.070184 -2.662565,13.264022 0.582407,19.162605 a 2.8808438,2.8808438 0 1 0 5.04808,-2.777086 c -2.334155,-4.242962 -2.495355,-9.561196 -0.427917,-13.913841 1.365074,-2.873949 3.701259,-5.422115 6.594664,-7.148689 2.893602,-1.726707 6.405524,-2.662493 9.870673,-2.615503 3.465412,0.04699 6.946421,1.077153 9.790806,2.876521 2.844602,1.79951 5.11293,4.399076 6.418871,7.304944 2.038211,4.535278 1.714451,10.042694 -0.857624,14.354198 a 2.8808438,2.8808438 0 1 0 4.946872,2.951098 c 3.55263,-5.955178 3.997243,-13.364383 1.164805,-19.666885 -1.794401,-3.992774 -4.808033,-7.41823 -8.592222,-9.812135 -3.784429,-2.394046 -8.255905,-3.708128 -12.793388,-3.769663 z"
       id="path962"
       inkscape:connector-curvature="0" />
    <rect
       style="fill:#ff6400;fill-opacity:1;fill-rule:evenodd;stroke:#552200;stroke-width:1.05599999;stroke-miterlimit:4;stroke-dasharray:none;stroke-opacity:1"
       id="rect1060-1"
       width="122.47957"
       height="63.351505"
       x="-132.89474"
       y="202.36603"
       ry="19.172808" />
    <rect
       style="fill:#ff6400;fill-opacity:1;fill-rule:evenodd;stroke:#552200;stroke-width:0.88200003;stroke-miterlimit:4;stroke-dasharray:none;stroke-opacity:1"
       id="rect1077-0"
       width="10.151835"
       height="34.30584"
       x="-112.43779"
       y="221.71935"
       ry="5.0759177" />
    <rect
       style="fill:#ff6400;fill-opacity:1;fill-rule:evenodd;stroke:#552200;stroke-width:0.88200003;stroke-miterlimit:4;stroke-dasharray:none;stroke-opacity:1"
       id="rect1077-0-9"
       width="10.151835"
       height="34.30584"
       x="-38.702965"
       y="223.03499"
       ry="5.0759177" />
    <path
       style="fill:#00aad4;fill-opacity:1;stroke:#000080;stroke-width:1.24095273;stroke-linecap:butt;stroke-linejoin:miter;stroke-miterlimit:4;stroke-dasharray:none;stroke-opacity:1"
       d="m -87.55743,53.651172 c -7.291135,2.304764 -21.87375,6.9144 -30.62159,17.607772 -8.74784,10.693372 -11.66053,27.469991 -12.90778,41.239216 -1.24725,13.76922 -0.82896,24.53033 -0.78537,32.11491 0.0436,7.58458 -0.2875,11.99173 -0.45108,14.31047 -0.16359,2.31874 -0.15956,2.54752 -1.76447,2.57587 -1.60491,0.0283 -4.81199,-0.14413 -7.74141,6.77093 -2.92941,6.91505 -5.57663,20.91571 -5.39857,32.45921 0.17807,11.54351 3.18153,20.62673 4.68351,25.16908 1.50197,4.54234 1.50197,4.54234 2.19923,5.10292 0.69726,0.56059 2.09162,1.68162 3.36354,2.34662 1.27192,0.66501 2.42121,0.87393 3.79341,0.73522 1.3722,-0.1387 2.96775,-0.62506 4.81391,0.14426 1.84616,0.76932 3.94421,2.79488 14.52285,5.0147 10.57864,2.21981 29.637946,4.63419 46.139438,4.91687 16.501491,0.28269 30.445376,-1.5663 38.552434,-3.08358 8.107058,-1.51728 10.377461,-2.70281 12.892741,-2.9761 2.51528,-0.27329 5.276299,0.36562 7.6752656,-0.0203 2.3989663,-0.38593 4.436366,-1.79655 6.643187,-6.73293 2.20682086,-4.93638 4.5840167,-13.4008 5.0908712,-25.05222 0.5068545,-11.65142 -0.8561943,-26.49087 -3.50009433,-34.60803 -2.64390007,-8.11715 -6.56835417,-9.51197 -9.10160977,-10.08499 -2.5332557,-0.57302 -3.7024507,-0.31773 -3.6728797,-3.78031 0.02957,-3.46258 1.261288,-10.99247 1.72743,-22.34006 0.466142,-11.34759 0.196356,-26.69424 -0.597297,-38.60566 -0.793652,-11.911424 -2.11122,-20.388814 -9.690138,-27.93098 -7.578919,-7.542167 -21.419316,-14.149546 -32.225203,-16.926714 -10.805888,-2.777169 -18.577383,-1.724074 -22.463276,-1.197506 -3.885893,0.526567 -3.885913,0.526567 -11.177049,2.831332 z"
       id="path964"
       inkscape:connector-curvature="0"
       inkscape:path-effect="#path-effect966"
       inkscape:original-d="m -80.266294,51.346407 c -14.582316,4.609388 -29.164926,9.219023 -43.747806,13.828901 -2.91257,16.777041 -5.82525,33.553662 -8.73825,50.330852 0.41855,10.76121 0.83684,21.52232 1.2549,32.28385 -0.33088,4.40766 -0.66197,8.81481 -0.99342,13.22345 0.004,0.22882 0.008,0.4576 0.0121,0.68715 -3.21385,-0.17312 -6.42093,-0.3456 -9.63214,-0.51803 -2.64742,14.00285 -5.29464,28.00351 -7.94249,42.00633 3.00409,9.08404 6.00754,18.16727 9.01118,27.25206 2.6e-4,-2.6e-4 2.6e-4,-2.6e-4 0,0 1.39474,1.1209 2.78909,2.24194 4.18327,3.36326 1.1495,0.20867 2.29879,0.41758 3.44783,0.62675 1.59526,-0.48646 3.19081,-0.97282 4.78587,-1.45885 2.09754,2.0246 4.19559,4.05016 6.29304,6.07561 19.05964,2.41414 38.11894,4.82853 57.177992,7.24315 13.94387,-1.84919 27.887755,-3.69817 41.831296,-5.5469 2.270552,-1.18573 4.540954,-2.37126 6.811076,-3.55652 2.760557,0.63849 5.521576,1.2774 8.2820078,1.91648 2.0373928,-1.4107 4.0747986,-2.82131 6.1118437,-4.23161 2.37680341,-8.46236 4.7539982,-16.92678 7.1306216,-25.38982 -1.3628,-14.83988 -2.7258485,-29.67933 -4.08917657,-44.51868 -3.92464473,-1.39525 -7.84909633,-2.79008 -11.77468753,-4.18494 -1.141079,0.24895 -2.310275,0.50424 -3.423656,0.74756 1.172781,-7.16824 2.404499,-14.69813 3.606353,-22.0468 -0.269544,-15.34655 -0.53933,-30.6932 -0.80934,-46.038855 -1.317268,-8.477231 -2.634835,-16.954621 -3.952608,-25.431563 -13.840202,-6.607623 -27.680599,-13.215001 -41.521188,-19.822136 -7.771345,1.052862 -15.54284,2.105956 -23.314598,3.159301 z"
       sodipodi:nodetypes="ccccccccccccccccccccccccccccc" />
    <path
       style="fill:none;stroke:#000000;stroke-width:0.88528001;stroke-linecap:butt;stroke-linejoin:miter;stroke-miterlimit:4;stroke-dasharray:none;stroke-opacity:1"
       d="m -109.88381,175.45257 c -1.02259,17.41857 -2.04519,34.83713 -0.85412,45.71486 1.19107,10.87773 4.59575,15.21363 8.00052,19.54965"
       id="path1141"
       inkscape:connector-curvature="0"
       inkscape:path-effect="#path-effect1143"
       inkscape:original-d="m -109.88381,175.45257 c -1.02235,17.41858 -2.04494,34.83714 -3.06783,52.25657 3.40507,4.33579 6.80975,8.67169 10.21423,13.00794"
       sodipodi:nodetypes="ccc" />
    <rect
       style="fill:#ff6400;fill-opacity:1;fill-rule:evenodd;stroke:#552200;stroke-width:0.88200003;stroke-miterlimit:4;stroke-dasharray:none;stroke-opacity:1"
       id="rect1077"
       width="9.7835503"
       height="104.98249"
       x="-112.00124"
       y="72.947899"
       ry="4.8917751" />
    <path
       style="fill:none;stroke:#000000;stroke-width:0.88528007;stroke-linecap:butt;stroke-linejoin:miter;stroke-miterlimit:4;stroke-dasharray:none;stroke-opacity:1"
       d="m -30.475471,176.71162 c 1.022593,17.41857 2.045185,34.83713 0.854119,45.71486 -1.191066,10.87774 -4.595748,15.21364 -8.000519,19.54965"
       id="path1141-6"
       inkscape:connector-curvature="0"
       inkscape:path-effect="#path-effect1143-3"
       inkscape:original-d="m -30.475471,176.71162 c 1.02235,17.41858 2.04494,34.83714 3.06783,52.25658 -3.40507,4.33579 -6.80975,8.67169 -10.21423,13.00793"
       sodipodi:nodetypes="ccc" />
    <rect
       style="fill:#ff6400;fill-opacity:1;fill-rule:evenodd;stroke:#552200;stroke-width:0.88294429;stroke-miterlimit:4;stroke-dasharray:none;stroke-opacity:1"
       id="rect1077-2"
       width="9.7976189"
       height="105.12655"
       x="-38.685577"
       y="74.760094"
       ry="4.8988094" />
    <rect
       style="fill:#ff6400;fill-opacity:1;fill-rule:evenodd;stroke:#552200;stroke-width:0.847;stroke-miterlimit:4;stroke-dasharray:none;stroke-opacity:1"
       id="rect1060"
       width="114.63605"
       height="63.351505"
       x="-127.85524"
       y="32.671967"
       ry="27.016327" />
    <rect
       style="fill:#ff6400;fill-opacity:1;fill-rule:evenodd;stroke:#552200;stroke-width:0.66500002;stroke-miterlimit:4;stroke-dasharray:none;stroke-opacity:1"
       id="rect1094"
       width="15.083692"
       height="6.6368241"
       x="-114.27481"
       y="135.17679"
       ry="1.8148086" />
    <rect
       style="fill:#ff6400;fill-opacity:1;fill-rule:evenodd;stroke:#552200;stroke-width:0.66500002;stroke-miterlimit:4;stroke-dasharray:none;stroke-opacity:1"
       id="rect1094-7"
       width="15.083692"
       height="6.6368246"
       x="-40.946274"
       y="135.75264"
       ry="1.8148087" />
  </g>
</svg>
