<?xml version="1.0" encoding="UTF-8" standalone="no"?>
<!-- Created with Inkscape (http://www.inkscape.org/) -->

<svg
   xmlns:dc="http://purl.org/dc/elements/1.1/"
   xmlns:cc="http://creativecommons.org/ns#"
   xmlns:rdf="http://www.w3.org/1999/02/22-rdf-syntax-ns#"
   xmlns:svg="http://www.w3.org/2000/svg"
   xmlns="http://www.w3.org/2000/svg"
   xmlns:sodipodi="http://sodipodi.sourceforge.net/DTD/sodipodi-0.dtd"
   xmlns:inkscape="http://www.inkscape.org/namespaces/inkscape"
   width="226.22566mm"
   height="226.22566mm"
   viewBox="0 0 226.22566 226.22567"
   version="1.1"
   id="svg8"
   inkscape:version="0.92.3 (2405546, 2018-03-11)"
   sodipodi:docname="bagage-medium.svg">
  <defs
     id="defs2">
    <inkscape:path-effect
       effect="spiro"
       id="path-effect1008"
       is_visible="true" />
    <inkscape:path-effect
       effect="bspline"
       id="path-effect974"
       is_visible="true"
       weight="33.333333"
       steps="2"
       helper_size="0"
       apply_no_weight="true"
       apply_with_weight="true"
       only_selected="false" />
    <inkscape:path-effect
       effect="bspline"
       id="path-effect970"
       is_visible="true"
       weight="33.333333"
       steps="2"
       helper_size="0"
       apply_no_weight="true"
       apply_with_weight="true"
       only_selected="false" />
    <inkscape:path-effect
       effect="bspline"
       id="path-effect966"
       is_visible="true"
       weight="33.333333"
       steps="2"
       helper_size="0"
       apply_no_weight="true"
       apply_with_weight="true"
       only_selected="false" />
    <inkscape:path-effect
       effect="spiro"
       id="path-effect819"
       is_visible="true" />
    <inkscape:path-effect
       effect="spiro"
       id="path-effect819-3"
       is_visible="true" />
    <inkscape:path-effect
       effect="bspline"
       id="path-effect974-6"
       is_visible="true"
       weight="33.333333"
       steps="2"
       helper_size="0"
       apply_no_weight="true"
       apply_with_weight="true"
       only_selected="false" />
  </defs>
  <sodipodi:namedview
     id="base"
     pagecolor="#ffffff"
     bordercolor="#666666"
     borderopacity="1.0"
     inkscape:pageopacity="0.0"
     inkscape:pageshadow="2"
     inkscape:zoom="0.43852551"
     inkscape:cx="-64.871152"
     inkscape:cy="427.51311"
     inkscape:document-units="mm"
     inkscape:current-layer="layer1"
     showgrid="false"
     inkscape:window-width="1533"
     inkscape:window-height="845"
     inkscape:window-x="67"
     inkscape:window-y="27"
     inkscape:window-maximized="1"
     showguides="false" />
  <metadata
     id="metadata5">
    <rdf:RDF>
      <cc:Work
         rdf:about="">
        <dc:format>image/svg+xml</dc:format>
        <dc:type
           rdf:resource="http://purl.org/dc/dcmitype/StillImage" />
        <dc:title />
      </cc:Work>
    </rdf:RDF>
  </metadata>
  <g
     inkscape:label="Camada 1"
     inkscape:groupmode="layer"
     id="layer1"
     transform="translate(228.78691,-22.983836)">
    <path
       style="color:#000000;font-style:normal;font-variant:normal;font-weight:normal;font-stretch:normal;font-size:medium;line-height:normal;font-family:sans-serif;font-variant-ligatures:normal;font-variant-position:normal;font-variant-caps:normal;font-variant-numeric:normal;font-variant-alternates:normal;font-feature-settings:normal;text-indent:0;text-align:start;text-decoration:none;text-decoration-line:none;text-decoration-style:solid;text-decoration-color:#000000;letter-spacing:normal;word-spacing:normal;text-transform:none;writing-mode:lr-tb;direction:ltr;text-orientation:mixed;dominant-baseline:auto;baseline-shift:baseline;text-anchor:start;white-space:normal;shape-padding:0;clip-rule:nonzero;display:inline;overflow:visible;visibility:visible;opacity:1;isolation:auto;mix-blend-mode:normal;color-interpolation:sRGB;color-interpolation-filters:linearRGB;solid-color:#000000;solid-opacity:1;vector-effect:none;fill:#ff6400;fill-opacity:1;fill-rule:nonzero;stroke:#552200;stroke-width:0.847;stroke-linecap:round;stroke-linejoin:miter;stroke-miterlimit:4;stroke-dasharray:none;stroke-dashoffset:0;stroke-opacity:1;color-rendering:auto;image-rendering:auto;shape-rendering:auto;text-rendering:auto;enable-background:accumulate"
       d="m -110.80173,37.724006 c -4.53776,-0.06154 -9.04874,1.129561 -12.90173,3.428742 -3.85322,2.299319 -6.96114,5.660786 -8.84442,9.625694 -2.88326,6.070184 -2.66258,13.264022 0.58241,19.162605 a 2.8808438,2.8808438 0 1 0 5.04811,-2.777086 c -2.33417,-4.242962 -2.49537,-9.561196 -0.42792,-13.913841 1.36508,-2.873949 3.70128,-5.422115 6.5947,-7.148689 2.89362,-1.726707 6.40556,-2.662493 9.87073,-2.615503 3.46543,0.04699 6.94646,1.077153 9.79086,2.876521 2.844608,1.79951 5.112938,4.399076 6.418876,7.304944 2.038215,4.535278 1.714452,10.042694 -0.857625,14.354198 a 2.8808438,2.8808438 0 1 0 4.946874,2.951098 c 3.55263,-5.955178 3.997243,-13.364383 1.164805,-19.666885 -1.794397,-3.992774 -4.808032,-7.41823 -8.592225,-9.812135 -3.784435,-2.394046 -8.255935,-3.708128 -12.793445,-3.769663 z"
       id="path962"
       inkscape:connector-curvature="0" />
    <path
       style="fill:#00aad4;fill-opacity:1;stroke:#000000;stroke-width:1.24095273;stroke-linecap:butt;stroke-linejoin:miter;stroke-miterlimit:4;stroke-dasharray:none;stroke-opacity:1"
       d="m -126.46228,51.363254 c -11.22513,2.634445 -25.88654,6.98705 -34.82099,17.525006 -8.93445,10.537955 -12.14157,27.260785 -13.63065,41.00596 -1.48907,13.74517 -1.25999,24.51197 -1.37453,34.47723 -0.11454,9.96527 -0.5727,19.12845 -0.80179,23.82469 -0.22909,4.69625 -0.22909,4.92532 -1.83425,4.92533 -1.60517,1e-5 -4.80898,-0.22884 -6.52723,4.35305 -1.71825,4.58188 -1.94732,13.97369 -2.1764,21.18992 -0.22909,7.21623 -0.45817,12.25596 -0.34364,16.72323 0.11454,4.46726 0.57269,8.3615 1.48909,10.88158 0.9164,2.52007 2.29083,3.66544 3.55087,4.3527 1.26003,0.68726 2.40547,0.91634 3.7799,0.80178 1.37443,-0.11456 2.97829,-0.57281 4.81063,0.22885 1.83235,0.80165 3.89448,2.86378 14.43247,5.26918 10.53799,2.4054 29.552,5.15442 46.04606,5.7271 16.494053,0.57269 30.468282,-1.03092 38.600757,-2.40547 8.132475,-1.37455 10.423363,-2.51999 12.943059,-2.74903 2.519697,-0.22903 5.269059,0.45831 7.674439,0.11461 2.40538,-0.3437 4.467264,-1.71829 5.956127,-6.41402 1.488864,-4.69573 2.405326,-12.71477 2.290777,-22.56519 -0.114548,-9.85041 -1.260009,-21.53411 -2.978017,-27.60472 -1.718009,-6.07061 -4.008898,-6.52879 -5.727032,-6.64337 -1.718134,-0.11458 -2.863464,0.11449 -2.765968,-5.58061 0.0975,-5.69509 1.50585,-17.90082 2.193088,-31.53134 0.687238,-13.63052 0.687238,-28.97955 0.103072,-40.903077 -0.584165,-11.923527 -1.752524,-20.422766 -9.197705,-28.09698 -7.445181,-7.674214 -21.167304,-14.523841 -31.922733,-17.490514 -10.755434,-2.966673 -18.544284,-2.050339 -29.769404,0.584105 z"
       id="path964"
       inkscape:connector-curvature="0"
       inkscape:path-effect="#path-effect966"
       inkscape:original-d="m -123.02629,49.645178 c -14.66117,4.352364 -29.32258,8.704971 -43.98423,13.057817 -3.20701,16.723256 -6.41412,33.446089 -9.62156,50.169475 0.22934,10.76691 0.45842,21.53371 0.68726,32.30092 -0.45794,9.16334 -0.91609,18.32652 -1.37451,27.49014 2.5e-4,0.22886 2.5e-4,0.45793 0,0.68726 -3.21031,-0.22957 -6.41412,-0.45841 -9.62154,-0.68726 -0.22887,9.39288 -0.45794,18.78469 -0.68726,28.1774 -0.22885,5.03975 -0.45793,10.07948 -0.68726,15.11958 0.45844,3.89439 0.91658,7.78863 1.37452,11.68331 1.37482,1.14524 2.74925,2.29061 4.12351,3.43627 1.14565,0.22884 2.29109,0.45792 3.43628,0.68725 1.60356,-0.45834 3.20742,-0.91658 4.81077,-1.3745 2.06163,2.06115 4.12376,4.12328 6.18528,6.18528 19.01426,2.74877 38.02827,5.49779 57.04205,8.24704 13.974269,-1.60382 27.948499,-3.20742 41.922381,-4.81078 2.291042,-1.14564 4.581931,-2.29108 6.872536,-3.43626 2.748908,0.68692 5.49827,1.37426 8.247044,2.06176 2.061875,-1.37467 4.123761,-2.74926 6.185281,-4.12353 0.916455,-8.01711 1.832917,-16.03615 2.749014,-24.05387 -1.145143,-11.68316 -2.290605,-23.36686 -3.436267,-35.04993 -2.290561,-0.4584 -4.58145,-0.91658 -6.872536,-1.37451 -1.145275,0.22886 -2.290605,0.45793 -3.436267,0.68726 1.340902,-11.61931 2.749256,-23.82504 4.123522,-35.73719 2.41e-4,-15.34891 2.41e-4,-30.69794 0,-46.045957 -1.168063,-8.499074 -2.336421,-16.998313 -3.504993,-25.497108 -13.721923,-6.849868 -27.444046,-13.699495 -41.166368,-20.548882 -7.788697,0.916103 -15.577547,1.832436 -23.366657,2.749015 z"
       sodipodi:nodetypes="cccccccccccccccccccccccccccc" />
    <path
       style="color:#000000;font-style:normal;font-variant:normal;font-weight:normal;font-stretch:normal;font-size:medium;line-height:normal;font-family:sans-serif;font-variant-ligatures:normal;font-variant-position:normal;font-variant-caps:normal;font-variant-numeric:normal;font-variant-alternates:normal;font-feature-settings:normal;text-indent:0;text-align:start;text-decoration:none;text-decoration-line:none;text-decoration-style:solid;text-decoration-color:#000000;letter-spacing:normal;word-spacing:normal;text-transform:none;writing-mode:lr-tb;direction:ltr;text-orientation:mixed;dominant-baseline:auto;baseline-shift:baseline;text-anchor:start;white-space:normal;shape-padding:0;clip-rule:nonzero;display:inline;overflow:visible;visibility:visible;opacity:1;isolation:auto;mix-blend-mode:normal;color-interpolation:sRGB;color-interpolation-filters:linearRGB;solid-color:#000000;solid-opacity:1;vector-effect:none;fill:#ff6400;fill-opacity:1;fill-rule:nonzero;stroke:#552200;stroke-width:0.847;stroke-linecap:butt;stroke-linejoin:miter;stroke-miterlimit:4;stroke-dasharray:none;stroke-dashoffset:0;stroke-opacity:1;color-rendering:auto;image-rendering:auto;shape-rendering:auto;text-rendering:auto;enable-background:accumulate"
       d="m -55.618769,47.230732 c -3.554808,0.08498 -6.446432,1.437759 -8.661526,2.890727 -4.430187,2.905934 -7.179328,6.500962 -9.813909,9.593732 l 12.806852,11.474125 c 2.081774,-2.443821 4.251098,-3.879321 5.444854,-4.955786 1.017907,1.587119 2.428726,4.072973 3.588549,8.032954 1.704004,5.817972 2.814761,13.621148 2.402428,22.383587 -0.824669,17.524949 -5.314969,27.954579 -5.314969,27.954579 l -2.392367,38.38786 c 7.559881,-23.59599 24.375808,-44.09202 25.383738,-65.511455 0.503967,-10.709737 -0.791658,-20.318023 -3.096699,-28.188112 -2.30504,-7.870091 -5.066097,-13.993089 -10.387439,-18.427495 -2.660605,-2.21715 -6.404703,-3.719686 -9.959512,-3.634716 z"
       id="path972"
       inkscape:connector-curvature="0"
       sodipodi:nodetypes="cscccssccsssc" />
    <path
       style="color:#000000;font-style:normal;font-variant:normal;font-weight:normal;font-stretch:normal;font-size:medium;line-height:normal;font-family:sans-serif;font-variant-ligatures:normal;font-variant-position:normal;font-variant-caps:normal;font-variant-numeric:normal;font-variant-alternates:normal;font-feature-settings:normal;text-indent:0;text-align:start;text-decoration:none;text-decoration-line:none;text-decoration-style:solid;text-decoration-color:#000000;letter-spacing:normal;word-spacing:normal;text-transform:none;writing-mode:lr-tb;direction:ltr;text-orientation:mixed;dominant-baseline:auto;baseline-shift:baseline;text-anchor:start;white-space:normal;shape-padding:0;clip-rule:nonzero;display:inline;overflow:visible;visibility:visible;opacity:1;isolation:auto;mix-blend-mode:normal;color-interpolation:sRGB;color-interpolation-filters:linearRGB;solid-color:#000000;solid-opacity:1;vector-effect:none;fill:#ff6400;fill-opacity:1;fill-rule:nonzero;stroke:#552200;stroke-width:0.847;stroke-linecap:butt;stroke-linejoin:miter;stroke-miterlimit:4;stroke-dasharray:none;stroke-dashoffset:0;stroke-opacity:1;color-rendering:auto;image-rendering:auto;shape-rendering:auto;text-rendering:auto;enable-background:accumulate"
       d="m -171.4839,47.640903 c -3.55482,-0.08498 -7.29891,1.415788 -9.95952,3.63294 -5.32134,4.434406 -8.08062,10.557403 -10.38566,18.427494 -2.30504,7.870092 -3.60067,17.478372 -3.0967,28.188115 1.00793,21.419438 10.26229,45.351728 17.82217,68.947728 l 1.73293,-32.88984 c 0,0 -1.05402,-19.36391 -1.8787,-36.888882 -0.41233,-8.762431 0.69843,-16.565607 2.40243,-22.38358 1.16021,-3.961294 2.56897,-6.448049 3.58677,-8.034728 1.1936,1.076089 2.69924,5.949117 4.78178,8.393829 l 13.47171,-14.910393 c -2.63458,-3.092771 -5.3855,-6.687799 -9.81569,-9.593732 -2.2151,-1.452967 -5.10672,-2.80398 -8.66152,-2.888951 z"
       id="path972-2"
       inkscape:connector-curvature="0"
       sodipodi:nodetypes="cccsccsccccsc" />
    <path
       style="fill:none;stroke:#000000;stroke-width:0.69547898;stroke-linecap:butt;stroke-linejoin:miter;stroke-miterlimit:4;stroke-dasharray:2.78191594, 1.39095797;stroke-dashoffset:0.84150004;stroke-opacity:1"
       d="m -153.04155,169.58915 c -0.65995,-9.29064 -0.77102,-18.62023 -0.33243,-27.92395 0.44625,-9.46617 1.46134,-18.90412 2.99185,-28.25639 0.9986,-6.10201 2.22384,-12.19485 4.31783,-18.012659 2.094,-5.817808 5.08972,-11.377643 9.31173,-15.894976 6.39555,-6.842897 15.6331,-11.028796 24.99942,-11.007623 9.36631,0.02117 18.699818,4.343772 24.532338,11.67248 5.718257,7.185134 7.840019,16.532169 9.307929,25.596928 3.554335,21.94903 4.226755,44.363 1.99457,66.48562"
       id="path1006"
       inkscape:connector-curvature="0"
       inkscape:path-effect="#path-effect1008"
       inkscape:original-d="m -153.04155,169.58915 c -0.11057,-9.30822 -0.22138,-18.61621 -0.33243,-27.92395 -0.11105,-9.30775 1.77318,-18.61622 2.99185,-28.25639 1.21867,-9.64018 8.865,-24.045843 13.62956,-33.907635 4.76456,-9.861794 35.90252,0.886235 49.531758,0.664857 13.629252,-0.221379 5.651484,11.302313 9.307929,25.596928 3.656465,14.29464 9.289111,34.72133 1.99457,66.48562"
       sodipodi:nodetypes="csssssc" />
  </g>
</svg>
