<?xml version="1.0" encoding="UTF-8" standalone="no"?>
<!-- Created with Inkscape (http://www.inkscape.org/) -->

<svg
   xmlns:dc="http://purl.org/dc/elements/1.1/"
   xmlns:cc="http://creativecommons.org/ns#"
   xmlns:rdf="http://www.w3.org/1999/02/22-rdf-syntax-ns#"
   xmlns:svg="http://www.w3.org/2000/svg"
   xmlns="http://www.w3.org/2000/svg"
   xmlns:xlink="http://www.w3.org/1999/xlink"
   xmlns:sodipodi="http://sodipodi.sourceforge.net/DTD/sodipodi-0.dtd"
   xmlns:inkscape="http://www.inkscape.org/namespaces/inkscape"
   width="210mm"
   height="210mm"
   viewBox="0 0 210 210"
   version="1.1"
   id="svg8"
   sodipodi:docname="findyourproduct.svg"
   inkscape:version="0.92.3 (2405546, 2018-03-11)">
  <defs
     id="defs2">
    <color-profile
       name="Apple-RGB"
       xlink:href="/usr/share/color/icc/colord/AppleRGB.icc"
       id="color-profile994" />
  </defs>
  <sodipodi:namedview
     id="base"
     pagecolor="#ffffff"
     bordercolor="#666666"
     borderopacity="1.0"
     inkscape:pageopacity="0.0"
     inkscape:pageshadow="2"
     inkscape:zoom="0.38"
     inkscape:cx="937.71673"
     inkscape:cy="605.71429"
     inkscape:document-units="mm"
     inkscape:current-layer="layer1"
     showgrid="false"
     inkscape:window-width="1533"
     inkscape:window-height="845"
     inkscape:window-x="67"
     inkscape:window-y="27"
     inkscape:window-maximized="1"
     showguides="false"
     inkscape:snap-midpoints="false" />
  <metadata
     id="metadata5">
    <rdf:RDF>
      <cc:Work
         rdf:about="">
        <dc:format>image/svg+xml</dc:format>
        <dc:type
           rdf:resource="http://purl.org/dc/dcmitype/StillImage" />
        <dc:title></dc:title>
      </cc:Work>
    </rdf:RDF>
  </metadata>
  <g
     inkscape:label="Camada 1"
     inkscape:groupmode="layer"
     id="layer1"
     transform="translate(0,-87)">
    <path
       style="fill:none;stroke:#808080;stroke-width:3.25713062;stroke-linecap:round;stroke-linejoin:miter;stroke-miterlimit:4;stroke-dasharray:none;stroke-opacity:1"
       d="M 31.60126,151.33154 10.549533,189.55436 31.60126,227.77719"
       id="path48"
       inkscape:connector-curvature="0"
       sodipodi:nodetypes="ccc" />
    <path
       style="fill:none;stroke:#999999;stroke-width:3.25713062;stroke-linecap:round;stroke-linejoin:miter;stroke-miterlimit:4;stroke-dasharray:none;stroke-opacity:1"
       d="m 179.86444,151.33145 21.05173,38.22282 -21.05173,38.22283"
       id="path48-7"
       inkscape:connector-curvature="0"
       sodipodi:nodetypes="ccc" />
    <ellipse
       style="opacity:0;fill:#800080;fill-opacity:1;fill-rule:nonzero;stroke:#000000;stroke-width:5.96499968;stroke-linecap:round;stroke-miterlimit:4;stroke-dasharray:none;stroke-opacity:1"
       id="path875"
       cx="103.1875"
       cy="171.88988"
       rx="44.979168"
       ry="45.735119" />
    <ellipse
       style="fill:#a05a2c;fill-rule:evenodd;stroke-width:0.26622629"
       id="path877-5"
       cx="101.29762"
       cy="135.2262"
       rx="36.663692"
       ry="35.151787" />
    <ellipse
       style="fill:#ff5555;fill-rule:evenodd;stroke-width:0.26622629"
       id="path877"
       cx="78.997032"
       cy="159.0387"
       rx="36.663692"
       ry="35.151787" />
    <path
       style="fill:#fac455;fill-opacity:1;stroke:none;stroke-width:0.26458332px;stroke-linecap:butt;stroke-linejoin:miter;stroke-opacity:1"
       d="M 105.00178,294.09556 57.452382,186.75032 h 96.761898 z"
       id="path909"
       inkscape:connector-curvature="0"
       sodipodi:nodetypes="cccc" />
    <ellipse
       style="fill:#ffeeaa;fill-rule:evenodd;stroke-width:0.26622629"
       id="path877-5-3"
       cx="132.21609"
       cy="164.85962"
       rx="36.663692"
       ry="35.151787" />
    <path
       style="opacity:0;fill:#fac455;fill-opacity:1;fill-rule:nonzero;stroke:none;stroke-width:5.96499968;stroke-linecap:round;stroke-miterlimit:4;stroke-dasharray:none;stroke-opacity:1"
       id="path911"
       d="m 107.34298,138.21077 c -3.7542,3.03421 -7.498452,6.07514 -10.956958,9.44607 -3.181022,3.15026 -6.037009,6.61637 -8.279035,10.49436 -1.687698,3.48575 -2.337419,6.29682 -1.634077,10.12559 0.882391,3.5301 3.20566,6.31884 5.539856,9.0016 2.10706,2.36924 4.470487,4.4919 6.617666,6.82106 1.972428,2.20443 3.482748,4.73578 5.028958,7.23999 1.50994,2.6037 2.51034,5.44197 3.23594,8.35105 0.63409,2.77515 0.74344,5.6176 0.82806,8.45035 0.0539,2.00283 0.0637,4.00642 0.0662,6.00985 0.005,1.20257 0.009,2.40534 0.0278,3.6078 0.0116,0.46564 0.009,0.23145 0.008,0.70258 0,0 -10.031484,5.11041 -10.031484,5.11041 v 0 c -2.64e-4,-0.47452 -0.0034,-0.23705 0.0092,-0.71239 0.02209,-1.21695 0.03435,-2.43414 0.05028,-3.65118 0.02032,-2.01174 0.05669,-4.02346 0.04793,-6.03537 -0.03814,-2.76298 -0.131032,-5.53974 -0.683133,-8.25644 -0.666713,-2.80853 -1.638559,-5.53361 -3.072976,-8.04927 -1.496259,-2.45085 -3.004995,-4.90077 -4.925663,-7.05175 -2.154196,-2.32891 -4.478923,-4.49646 -6.554542,-6.89952 -2.444207,-2.83001 -4.853717,-5.79631 -5.845365,-9.47863 -0.126008,-0.59086 -0.301522,-1.17329 -0.378018,-1.77257 -0.39927,-3.12802 0.488706,-6.24073 1.738976,-9.07226 2.142414,-4.03786 5.072412,-7.58396 8.278006,-10.82973 3.32814,-3.33767 6.956348,-6.32148 10.551554,-9.36423 0,0 10.332865,-4.18737 10.332865,-4.18737 z"
       inkscape:connector-curvature="0" />
    <path
       style="opacity:0;vector-effect:none;fill:#fac455;fill-opacity:1;stroke:none;stroke-width:5.9649992;stroke-linecap:round;stroke-linejoin:miter;stroke-miterlimit:4;stroke-dasharray:none;stroke-dashoffset:0;stroke-opacity:1"
       id="path915"
       d="m 162.42146,70.265693 c -8.13714,6.917428 -15.65172,14.494184 -22.96896,22.25993 -6.66601,7.474427 -13.34377,15.055237 -18.73476,23.529907 -0.82152,1.29144 -1.56652,2.62999 -2.34978,3.94499 -2.60311,4.89275 -5.24859,10.17404 -5.61857,15.82088 -0.0568,0.86745 0.0394,1.73818 0.0591,2.60727 0.15626,0.83057 0.22627,1.68211 0.46877,2.49171 1.49071,4.97682 6.10197,7.5035 10.35114,9.81908 6.72452,3.06936 13.70946,5.49664 20.3768,8.69642 3.16306,1.71253 6.70545,3.59044 8.2956,7.03935 0.96918,2.10207 0.83207,3.22372 0.98815,5.49479 -0.16137,1.04692 -0.21598,2.11598 -0.48412,3.14078 -1.53348,5.86094 -5.68103,10.65908 -10.16756,14.52864 -1.40686,1.21339 -2.93042,2.2845 -4.39563,3.42675 -1.55944,0.99847 -3.07621,2.06694 -4.67832,2.99541 -4.41991,2.56147 -8.85946,5.09382 -13.38132,7.4707 -1.50935,0.79338 -3.1168,1.38544 -4.69505,2.03099 -3.83146,1.56718 -7.73838,2.82224 -11.69393,4.02556 -4.105381,1.2036 -8.315101,1.97729 -12.470297,2.979 -1.05601,0.22132 -2.134135,0.46896 -3.132939,0.89137 -0.246984,0.10445 -0.949548,0.49857 -0.716039,0.36672 9.206036,-5.19827 10.948804,-7.75505 8.478451,-4.38588 -0.04997,0.33826 -0.171024,0.6735 -0.149897,1.01477 0.223652,3.61271 4.484191,8.95251 6.523201,11.77335 3.161,4.36351 6.61834,8.49625 10.21894,12.50022 0,0 -9.19154,5.54568 -9.19154,5.54568 v 0 c -3.481336,-4.13022 -6.868529,-8.33687 -10.063082,-12.69479 -2.427137,-3.24089 -6.513356,-8.07343 -7.355999,-12.11863 -0.09443,-0.45332 -0.07106,-0.92337 -0.106584,-1.38506 0.09022,-0.33653 -0.01622,-0.8119 0.270668,-1.00959 5.484199,-3.77902 8.403087,-6.11937 13.984947,-7.17262 4.02034,-0.89238 8.08752,-1.59026 12.0463,-2.74347 3.84089,-1.15493 7.63287,-2.36001 11.34027,-3.90621 1.5497,-0.64631 3.20148,-2.97172 4.60271,-2.04661 1.2903,0.85187 -5.28932,3.18974 -3.9005,2.51022 1.65678,-0.81063 3.13933,-1.9372 4.709,-2.9058 1.45581,-1.10196 2.96591,-2.13562 4.36741,-3.30587 4.35994,-3.64052 8.39639,-8.13377 9.99654,-13.71244 0.27064,-0.94354 0.35349,-1.93108 0.53023,-2.89662 -0.092,-2.04467 0.0645,-3.07895 -0.78314,-4.97132 -1.46416,-3.26869 -4.89648,-4.97957 -7.82812,-6.64887 -6.62766,-3.27905 -13.62395,-5.67693 -20.33013,-8.78088 -5.98272,-3.21588 -10.487,-5.95006 -11.56432,-13.15943 -0.0354,-0.9307 -0.15601,-1.86205 -0.10633,-2.79211 0.31244,-5.84921 3.08457,-11.33165 5.80943,-16.36753 2.33198,-3.88377 2.62621,-4.54224 5.33575,-8.33063 4.92279,-6.88287 10.54824,-13.24069 16.16366,-19.556019 6.99214,-7.502 14.1597,-14.818079 21.64821,-21.827154 0,0 10.30163,-4.186954 10.30163,-4.186954 z"
       inkscape:connector-curvature="0" />
    <path
       style="opacity:0;vector-effect:none;fill:#fac455;fill-opacity:1;stroke:#000000;stroke-width:5.9649992;stroke-linecap:round;stroke-linejoin:miter;stroke-miterlimit:4;stroke-dasharray:none;stroke-dashoffset:0;stroke-opacity:1"
       id="path919"
       d="m 146.64196,-26.12378 c 3.56158,8.97161 8.82421,17.0891567 14.3706,24.9344546 4.86547,6.2571312 10.4026,12.0384354 16.88514,16.6416984 3.95754,2.810254 5.01397,3.183792 9.26024,5.406689 9.47907,4.510141 19.8966,5.875703 30.19695,7.126685 5.50191,0.711607 11.12169,0.770411 16.56036,1.952913 3.01489,0.65551 3.56953,0.998781 6.41324,2.106557 0.97361,0.532532 2.0052,0.970611 2.92084,1.597596 4.13166,2.829155 6.66514,7.231629 8.11953,11.925499 0.41612,1.342956 0.68159,2.728036 1.02238,4.092056 1.52355,8.36164 1.76408,16.892222 1.44816,25.366183 -0.23824,4.37933 -0.62723,8.748452 -0.83053,13.129761 0,0 -9.82871,4.934113 -9.82871,4.934113 v 0 c 0.32549,-4.451744 0.85387,-8.883678 1.24717,-13.329574 0.55963,-8.39872 0.44616,-16.865762 -1.17594,-25.155243 -0.33653,-1.320231 -0.59765,-2.662016 -1.0096,-3.960694 -1.78917,-5.64039 -5.19868,-10.273043 -10.70166,-12.691536 -2.78331,-1.038867 -3.30186,-1.34571 -6.23378,-1.978818 -5.35078,-1.155425 -10.86321,-1.343483 -16.27073,-2.102369 C 198.67015,32.51926 188.17178,31.078472 178.67946,26.405274 174.4907,24.12642 173.29201,23.651149 169.39381,20.802008 162.91342,16.065561 157.38967,10.15691 152.46516,3.8532069 146.84847,-4.0185494 141.6391,-12.143112 136.98847,-20.627233 c 0,0 9.65349,-5.496547 9.65349,-5.496547 z"
       inkscape:connector-curvature="0" />
    <path
       style="opacity:0;fill:#fac455;fill-opacity:1;fill-rule:nonzero;stroke:#d870be;stroke-width:5.96499968;stroke-linecap:round;stroke-miterlimit:4;stroke-dasharray:none;stroke-opacity:0.86635946"
       id="path927"
       d="m 267.73867,-59.648158 c -3.55155,8.194924 -6.16818,16.736843 -8.34915,25.384326 -0.96953,5.782866 -3.09483,13.961975 -0.005,19.458993 0.59526,1.059034 1.48212,1.925328 2.22318,2.88799 1.15251,0.836531 2.22172,1.801884 3.45752,2.5095918 8.28349,4.7437119 19.86332,5.6904598 29.18602,6.8500968 3.89322,0.4368059 8.31358,0.9010915 12.20436,1.4580314 4.94644,0.70805943 10.33137,1.37947932 14.4022,4.6176433 1.27169,1.0115867 2.20443,2.38801 3.30663,3.5820164 0.75909,1.6221339 1.71976,3.1644273 2.27727,4.8663993 2.73388,8.346098 1.7136,19.456799 0.1815,27.945879 -0.4449,2.46498 -1.08252,4.891248 -1.62377,7.336871 -2.83602,9.173171 -1.2372,4.733806 -4.75758,13.332044 0,0 -8.87905,4.087114 -8.87905,4.087114 v 0 c 3.69049,-8.5316 2.02419,-4.123466 4.96083,-13.238741 0.55909,-2.425303 1.22193,-4.829008 1.67727,-7.275914 1.5633,-8.400595 2.45915,-18.940809 -0.38901,-27.180842 -0.54996,-1.591151 -1.47643,-3.026066 -2.21464,-4.539101 -1.05051,-1.102302 -1.94668,-2.375768 -3.15148,-3.306911 -3.95343,-3.0554136 -9.1966,-3.731305 -13.95288,-4.4583085 -4.43474,-0.6778546 -7.59841,-1.0067713 -12.08808,-1.533054 -9.51648,-1.2181126 -21.38264,-2.21967162 -29.85748,-7.0074049 -1.33564,-0.7545519 -2.49066,-1.7915837 -3.73599,-2.6873755 -2.15284,-2.7616467 -2.92401,-3.1103834 -3.72319,-6.5431221 -1.23335,-5.297678 0.43757,-11.555415 1.3229,-16.767558 2.13927,-8.468799 4.73737,-16.793909 7.46977,-25.088223 0,0 10.0579,-4.690441 10.0579,-4.690441 z"
       inkscape:connector-curvature="0" />
    <path
       style="opacity:0;fill:none;fill-opacity:1;fill-rule:nonzero;stroke:#d870be;stroke-width:5.96499968;stroke-linecap:round;stroke-miterlimit:4;stroke-dasharray:none;stroke-opacity:0.86635946"
       id="path990"
       d="m 146.52269,-31.840796 c 5.47996,2.428973 10.76235,5.364535 16.43987,7.286921 50.14931,16.9803496 -8.30921,-6.924476 42.92682,12.690134 9.72627,3.723494 24.70364,10.91541661 34.34769,15.9216772 3.68708,1.913972 7.27518,4.0128507 10.91277,6.0192788 3.71,3.082054 9.04095,7.28762 12.52792,10.903825 1.35647,1.40675 2.73061,2.834241 3.77297,4.487262 0.24802,0.393335 3.39447,8.278731 3.77195,8.780148 1.01936,1.354053 2.56355,2.217724 3.84535,3.326588 0.56131,1.770044 2.63601,8.107547 2.97928,9.991624 0.036,0.197472 0.56359,7.860892 0.7279,8.445831 0.32525,1.15798 1.15562,2.114716 1.62047,3.224048 0.38348,0.915112 0.61148,1.887862 0.9172,2.831793 -0.32649,0.664206 -0.65299,1.328411 -0.97949,1.992617 -0.98364,11.47401 -17.21035,10.08292 -16.2267,-1.39109 v 0 c 0.11465,-0.321182 0.2293,-0.642365 0.34396,-0.963547 -0.63647,-3.260748 -0.27791,0.230549 0.92577,-4.199767 0.32721,-1.20437 0.50022,-2.464313 0.48702,-3.712271 -0.0495,-4.678675 -0.64585,-1.998869 -2.40353,-5.994675 -0.49094,-1.116079 -0.61369,-2.360089 -0.92053,-3.540133 -3.47701,-10.890096 1.63387,3.379417 -4.6329,-8.103491 -0.76434,-1.40053 -0.90648,-3.059626 -1.37221,-4.585663 -0.47887,-1.569093 -0.82661,-3.186912 -1.46157,-4.699593 -1.89598,-4.516887 -5.02568,-8.456925 -6.68422,-13.08794 -2.83644,-3.024058 -5.20187,-6.5719561 -8.50932,-9.072176 -4.4492,-3.3633065 -9.4976,-5.8865293 -14.51128,-8.3299166 -19.59882,-9.5513554 -20.15394,-8.1128684 -41.48854,-14.4264354 -7.00193,-2.072089 -13.66839,-5.621649 -20.916,-6.512009 -5.91652,-0.726835 -11.86436,1.170821 -17.79653,1.75623 -6.39173,-0.95876 -5.03584,-9.99803 1.35588,-9.03927 z"
       inkscape:connector-curvature="0" />
  </g>
</svg>
