<?xml version="1.0" encoding="UTF-8" standalone="no"?>
<!-- Created with Inkscape (http://www.inkscape.org/) -->

<svg
   xmlns:dc="http://purl.org/dc/elements/1.1/"
   xmlns:cc="http://creativecommons.org/ns#"
   xmlns:rdf="http://www.w3.org/1999/02/22-rdf-syntax-ns#"
   xmlns:svg="http://www.w3.org/2000/svg"
   xmlns="http://www.w3.org/2000/svg"
   xmlns:sodipodi="http://sodipodi.sourceforge.net/DTD/sodipodi-0.dtd"
   xmlns:inkscape="http://www.inkscape.org/namespaces/inkscape"
   width="268.99051mm"
   height="268.99051mm"
   viewBox="0 0 268.99051 268.99051"
   version="1.1"
   id="svg8"
   inkscape:version="0.92.3 (2405546, 2018-03-11)"
   sodipodi:docname="parede.svg">
  <defs
     id="defs2">
    <inkscape:perspective
       sodipodi:type="inkscape:persp3d"
       inkscape:vp_x="-59.143566 : 18.14283 : 0"
       inkscape:vp_y="0 : 275.81059 : 0"
       inkscape:vp_z="-179.52953 : -14.571551 : 0"
       inkscape:persp3d-origin="-214.87586 : 252.83515 : 1"
       id="perspective823" />
    <inkscape:path-effect
       effect="spiro"
       id="path-effect821"
       is_visible="true" />
    <inkscape:path-effect
       effect="spiro"
       id="path-effect817"
       is_visible="true" />
    <inkscape:perspective
       sodipodi:type="inkscape:persp3d"
       inkscape:vp_x="-57.508513 : 18.055488 : 0"
       inkscape:vp_y="0 : 274.48278 : 0"
       inkscape:vp_z="-174.56634 : -14.5014 : 0"
       inkscape:persp3d-origin="-195.59425 : 251.73771 : 1"
       id="perspective823-9" />
  </defs>
  <sodipodi:namedview
     id="base"
     pagecolor="#ffffff"
     bordercolor="#666666"
     borderopacity="1.0"
     inkscape:pageopacity="0.0"
     inkscape:pageshadow="2"
     inkscape:zoom="0.65465761"
     inkscape:cx="518.18209"
     inkscape:cy="509.85157"
     inkscape:document-units="mm"
     inkscape:current-layer="layer1"
     showgrid="false"
     inkscape:window-width="1533"
     inkscape:window-height="845"
     inkscape:window-x="67"
     inkscape:window-y="27"
     inkscape:window-maximized="1" />
  <metadata
     id="metadata5">
    <rdf:RDF>
      <cc:Work
         rdf:about="">
        <dc:format>image/svg+xml</dc:format>
        <dc:type
           rdf:resource="http://purl.org/dc/dcmitype/StillImage" />
        <dc:title />
      </cc:Work>
    </rdf:RDF>
  </metadata>
  <g
     inkscape:label="Camada 1"
     inkscape:groupmode="layer"
     id="layer1"
     transform="translate(118.47264,114.73548)">
    <path
       style="fill:#aaeeff;stroke:none;stroke-width:0.18438761px;stroke-linecap:butt;stroke-linejoin:miter;stroke-opacity:1"
       d="m -74.691031,35.8931 c 0.01292,2.674761 1.048471,5.263035 2.492953,7.514254 1.444482,2.251218 3.290084,4.21185 5.105564,6.176168 1.815479,1.964319 3.625482,3.964662 4.981175,6.27044 1.355693,2.305777 2.2414,4.964742 2.046056,7.632392 -0.151152,2.064157 -0.951048,4.06024 -2.174478,5.729614 -1.223429,1.669374 -2.85962,3.017642 -4.678109,4.005917 -3.636977,1.97655 -7.902102,2.497798 -12.039976,2.386635 -4.137874,-0.111164 -8.235989,-0.814937 -12.363313,-1.13046 -4.127324,-0.315523 -8.375674,-0.225551 -12.264811,1.191831 -4.6809,1.705936 -8.57637,5.305548 -10.96047,9.680145 -2.3841,4.374597 -3.30038,9.4775 -2.94658,14.446994 0.70759,9.93899 6.28886,18.94887 13.11287,26.20952 9.311237,9.90703 21.208174,17.3356 34.148968,21.50503 18.234063,5.87489 37.948242,5.25465 56.914918,2.56011 5.202226,-0.73906 10.4206671,-1.6391 15.3402995,-3.4848 4.9196325,-1.84569 9.5643175,-4.70024 12.8461345,-8.80378 2.371657,-2.96549 3.954616,-6.47027 5.488312,-9.94398 1.533695,-3.47371 3.064358,-6.99468 5.352625,-10.02498 4.71982,-6.25035 12.309266,-9.84602 20.020034,-11.21994 7.710767,-1.37392 15.626122,-0.74773 23.416417,0.0615 7.790296,0.80925 15.626623,1.79866 23.43089,1.1376 7.804262,-0.66106 15.704382,-3.12877 21.486292,-8.412047 4.45437,-4.070224 7.41352,-9.613085 8.95837,-15.445885 1.54485,-5.8328 1.73576,-11.958155 1.22549,-17.970455 -1.02054,-12.0246 -4.78678,-23.685819 -5.84748,-35.706943 -2.12686,-24.104219 6.6802,-47.701158 15.71937,-70.147325 2.74144,-6.807569 5.53428,-13.653835 6.93755,-20.857259 1.40326,-7.203424 1.33884,-14.880435 -1.5171,-21.640764 -2.83414,-6.708723 -8.28735,-12.120132 -14.64079,-15.680066 -6.35344,-3.559936 -13.57194,-5.367746 -20.81581,-6.119826 -14.930671,-1.55015 -29.996479,1.23688 -44.989893,0.51202 -12.009701,-0.58061 -23.779518,-3.402 -35.551526,-5.84942 -16.6893402,-3.46974 -33.666739,-6.21734 -50.702332,-5.61591 -17.035593,0.60144 -34.251079,4.72458 -48.50148,14.07868 -9.364604,6.147017 -17.483678,14.803253 -20.943085,25.457553 -1.729704,5.327151 -2.247121,11.080345 -1.206516,16.583758 1.040604,5.503412 3.672577,10.738238 7.675881,14.655375 4.817978,4.714275 11.273103,7.299944 17.567595,9.711721 6.294493,2.411778 12.776274,4.864195 17.765268,9.397102 5.652284,5.13556 8.908355,12.789982 8.751272,20.4252699 -0.157083,7.6352874 -3.706349,15.1267621 -9.473905,20.1325181 -3.689507,3.202183 -8.158804,5.376588 -12.000909,8.393983 -1.921052,1.508698 -3.693466,3.242448 -5.011563,5.298958 -1.318097,2.056509 -2.165976,4.456096 -2.154178,6.898732 z"
       id="path819"
       inkscape:connector-curvature="0"
       inkscape:path-effect="#path-effect821"
       inkscape:original-d="m -74.691031,35.8931 c -9.757035,12.118083 10.289558,22.302159 14.625748,27.593254 4.336183,5.291095 -27.801135,3.1376 -43.520687,12.183537 -15.71954,9.045956 6.071959,39.754649 -0.79418,50.336659 -6.86609,10.582 22.766169,14.3365 34.148968,21.50503 11.38279,7.16851 37.943468,1.70655 56.914918,2.56011 18.9714506,0.85355 18.7911461,-8.19257 28.186434,-12.28858 9.395289,-4.096 7.227482,-13.31281 10.840937,-19.96896 3.613458,-6.65613 58.902618,-12.28876 88.353633,-18.432867 29.45101,-6.144109 2.89112,-46.082368 4.33638,-69.123283 1.44528,-23.0409102 10.47977,-46.765061 15.71937,-70.147325 5.23958,-23.382264 3.61381,-28.332195 5.42045,-42.498023 1.80662,-14.165823 -18.65296,-17.362528 -35.4566,-21.799892 -16.803645,-4.43737 -29.993073,0.34117 -44.989893,0.51202 -14.996821,0.17086 -28.685411,-1.0707 -35.551526,-5.84942 -6.866114,-4.77871 -72.063296,-1.63313 -99.203812,8.46277 -17.602507,6.547885 -3.451907,43.725222 -14.47372,56.696686 -11.021809,12.971456 25.576213,8.697486 35.332863,19.108823 9.756654,10.411343 -5.600866,26.9036336 -0.722633,40.557788 4.878227,13.654159 -9.409615,8.473582 -19.16665,20.591673 z"
       sodipodi:nodetypes="ssscssscssscssssssss" />
  </g>
</svg>
