<?xml version="1.0" encoding="UTF-8" standalone="no"?>
<!-- Created with Inkscape (http://www.inkscape.org/) -->

<svg
   xmlns:dc="http://purl.org/dc/elements/1.1/"
   xmlns:cc="http://creativecommons.org/ns#"
   xmlns:rdf="http://www.w3.org/1999/02/22-rdf-syntax-ns#"
   xmlns:svg="http://www.w3.org/2000/svg"
   xmlns="http://www.w3.org/2000/svg"
   xmlns:sodipodi="http://sodipodi.sourceforge.net/DTD/sodipodi-0.dtd"
   xmlns:inkscape="http://www.inkscape.org/namespaces/inkscape"
   width="268.99051mm"
   height="268.99051mm"
   viewBox="0 0 268.99051 268.99051"
   version="1.1"
   id="svg8"
   inkscape:version="0.92.3 (2405546, 2018-03-11)"
   sodipodi:docname="tablet.svg">
  <defs
     id="defs2">
    <inkscape:perspective
       sodipodi:type="inkscape:persp3d"
       inkscape:vp_x="-59.143566 : 18.14283 : 0"
       inkscape:vp_y="0 : 275.81059 : 0"
       inkscape:vp_z="-179.52953 : -14.571551 : 0"
       inkscape:persp3d-origin="-214.87586 : 252.83515 : 1"
       id="perspective823" />
    <inkscape:path-effect
       effect="spiro"
       id="path-effect821"
       is_visible="true" />
    <inkscape:path-effect
       effect="spiro"
       id="path-effect817"
       is_visible="true" />
    <inkscape:perspective
       sodipodi:type="inkscape:persp3d"
       inkscape:vp_x="-57.508513 : 18.055488 : 0"
       inkscape:vp_y="0 : 274.48278 : 0"
       inkscape:vp_z="-174.56634 : -14.5014 : 0"
       inkscape:persp3d-origin="-195.59425 : 251.73771 : 1"
       id="perspective823-9" />
    <filter
       style="color-interpolation-filters:sRGB;"
       inkscape:label="Drop Shadow"
       id="filter1450">
      <feFlood
         flood-opacity="0.498039"
         flood-color="rgb(0,0,0)"
         result="flood"
         id="feFlood1440" />
      <feComposite
         in="flood"
         in2="SourceGraphic"
         operator="in"
         result="composite1"
         id="feComposite1442" />
      <feGaussianBlur
         in="composite1"
         stdDeviation="9.09091"
         result="blur"
         id="feGaussianBlur1444" />
      <feOffset
         dx="-19"
         dy="15.2"
         result="offset"
         id="feOffset1446" />
      <feComposite
         in="SourceGraphic"
         in2="offset"
         operator="over"
         result="composite2"
         id="feComposite1448" />
    </filter>
    <filter
       style="color-interpolation-filters:sRGB;"
       inkscape:label="Drop Shadow"
       id="filter2071">
      <feFlood
         flood-opacity="0.498039"
         flood-color="rgb(0,0,0)"
         result="flood"
         id="feFlood2061" />
      <feComposite
         in="flood"
         in2="SourceGraphic"
         operator="in"
         result="composite1"
         id="feComposite2063" />
      <feGaussianBlur
         in="composite1"
         stdDeviation="4.8"
         result="blur"
         id="feGaussianBlur2065" />
      <feOffset
         dx="-19"
         dy="15.2"
         result="offset"
         id="feOffset2067" />
      <feComposite
         in="SourceGraphic"
         in2="offset"
         operator="over"
         result="composite2"
         id="feComposite2069" />
    </filter>
  </defs>
  <sodipodi:namedview
     id="base"
     pagecolor="#ffffff"
     bordercolor="#666666"
     borderopacity="1.0"
     inkscape:pageopacity="0.0"
     inkscape:pageshadow="2"
     inkscape:zoom="0.23091237"
     inkscape:cx="124.8856"
     inkscape:cy="1337.5651"
     inkscape:document-units="mm"
     inkscape:current-layer="layer1"
     showgrid="false"
     inkscape:window-width="1533"
     inkscape:window-height="845"
     inkscape:window-x="67"
     inkscape:window-y="27"
     inkscape:window-maximized="1" />
  <metadata
     id="metadata5">
    <rdf:RDF>
      <cc:Work
         rdf:about="">
        <dc:format>image/svg+xml</dc:format>
        <dc:type
           rdf:resource="http://purl.org/dc/dcmitype/StillImage" />
        <dc:title></dc:title>
      </cc:Work>
    </rdf:RDF>
  </metadata>
  <g
     inkscape:label="Camada 1"
     inkscape:groupmode="layer"
     id="layer1"
     transform="translate(118.47264,114.73548)">
    <g
       id="g1217"
       transform="matrix(-0.85842065,0,0,0.85842065,17.340772,-52.194003)"
       style="filter:url(#filter2071)">
      <path
         style="fill:#a5a5a3;stroke-width:0.08466667;"
         d="m -96.496826,154.21754 c -1.508861,-0.0812 -3.208333,-0.34749 -4.075874,-0.63871 -2.03532,-0.68324 -3.94745,-2.14235 -5.038,-3.84441 -0.22611,-0.3529 -0.41111,-0.67364 -0.41112,-0.71277 0,-0.0391 0.33337,0.24084 0.74083,0.62214 1.24404,1.16418 2.78016,2.22172 3.69339,2.54269 0.54611,0.19195 1.04709,0.20497 1.856787,0.0483 0.789948,-0.15287 0.857792,-0.2518 0.299424,-0.43666 -1.903621,-0.6302 -3.161941,-1.36936 -4.334701,-2.54629 -1.00153,-1.00508 -1.58139,-1.91292 -2.25213,-3.526 -0.7832,-1.88352 -0.9167,-2.69344 -1.23134,-7.47036 -0.11656,-1.76953 -0.24882,-3.67453 -0.29391,-4.23333 -0.0451,-0.5588 -0.12259,-1.60655 -0.17221,-2.32834 -0.0496,-0.72177 -0.18297,-2.47437 -0.29634,-3.89466 -0.11337,-1.42028 -0.26501,-3.43958 -0.33699,-4.48733 -0.072,-1.04775 -0.1878,-2.6289 -0.25739,-3.51367 -0.0696,-0.88476 -0.25955,-3.36126 -0.42213,-5.50333 -0.16259,-2.14207 -0.46542,-6.02827 -0.67296,-8.636 -0.37181,-4.67177 -0.61405,-7.85043 -0.85168,-11.176001 -0.0666,-0.931334 -0.18055,-2.474384 -0.25333,-3.429 -0.0728,-0.954617 -0.18923,-2.497667 -0.25879,-3.429 -0.25779,-3.451505 -0.2869,-3.831396 -0.36985,-4.826001 -0.12725,-1.525778 -0.24525,-3.095091 -0.38837,-5.164666 -0.13055,-1.887788 -0.16043,-2.283663 -0.46333,-6.138334 -0.0933,-1.18745 -0.22642,-2.9591 -0.2958,-3.937 -0.0694,-0.9779 -0.16492,-2.25425 -0.21232,-2.836333 -0.0739,-0.908169 -0.48016,-6.964604 -0.76377,-11.387667 -0.0478,-0.745067 -0.16086,-2.421467 -0.25129,-3.725333 -0.0904,-1.303867 -0.20511,-3.056467 -0.25483,-3.894667 -0.15761,-2.656857 -0.41815,-6.709689 -0.55245,-8.593667 -0.16757,-2.350651 -0.52146,-7.678505 -0.63266,-9.525001 -0.0477,-0.79163 -0.12412,-1.95368 -0.16987,-2.58233 -0.0457,-0.62865 -0.12225,-1.78783 -0.17001,-2.57596 -0.12854,-2.12131 -0.40652,-6.36207 -0.54984,-8.38838 -0.28224,-3.99031 -0.38043,-5.43273 -0.50721,-7.45066 -0.0731,-1.16417 -0.22834,-3.54542 -0.3449,-5.29167 -0.11656,-1.74625 -0.24795,-3.76555 -0.29198,-4.48733 -0.044,-0.72179 -0.10537,-1.53668 -0.13631,-1.81088 -0.031,-0.2742 -0.0603,-1.1124 -0.0652,-1.86267 -0.005,-0.82312 -0.0425,-1.37688 -0.0936,-1.39629 -0.0466,-0.0177 -0.1763,0.1457 -0.28828,0.36309 -0.20153,0.39121 -0.20258,0.40624 -0.10337,1.4715 0.11994,1.28791 0.27511,3.79863 0.55856,9.03765 0.11581,2.14056 0.24857,4.55868 0.29502,5.3736 0.0464,0.81491 0.12325,2.22461 0.17068,3.13266 0.0474,0.90805 0.12454,2.2606 0.17136,3.00567 0.0717,1.13984 0.24759,4.42733 0.38064,7.112 0.15356,3.09866 0.22351,4.41375 0.29497,5.54567 0.0456,0.72178 0.1229,1.99813 0.17184,2.836331 0.16259,2.784577 0.24921,4.208873 0.41967,6.900334 0.0929,1.46685 0.2271,3.71475 0.29822,4.995333 0.27003,4.86228 0.4033,6.996532 0.72169,11.557 0.22369,3.204117 0.30473,5.083057 0.20815,4.826 -0.0276,-0.07351 -0.19668,-2.293163 -0.33533,-4.402667 -0.15248,-2.319883 -0.47544,-7.101789 -0.50606,-7.493 -0.02,-0.256116 -0.0956,-1.380066 -0.16784,-2.497666 -0.0723,-1.1176 -0.16868,-2.50825 -0.21425,-3.090334 -0.0456,-0.582083 -0.12235,-1.725083 -0.17063,-2.54 -0.0483,-0.814916 -0.12554,-1.976966 -0.17169,-2.582333 -0.0809,-1.061 -0.2637,-3.760961 -0.71661,-10.583338 -0.36026,-5.42687 -0.38434,-5.79914 -0.46557,-7.19666 -0.11122,-1.91383 -1.15857,-18.15365 -1.31867,-20.447 -0.21419,-3.06797 -0.15809,-4.97707 0.18534,-6.30767 0.28554,-1.10634 1.21539,-2.49607 1.92621,-2.87887 0.36826,-0.19832 0.44615,-0.13918 0.26868,0.204 -0.0745,0.14403 -0.11502,0.26187 -0.0901,0.26187 0.0249,0 0.42804,-0.31432 0.8958,-0.6985 0.46776,-0.38417 0.91506,-0.73706 0.99401,-0.78419 0.0789,-0.0471 0.24243,-0.15243 0.36329,-0.234 0.38144,-0.25743 1.27423,-0.56789 2.15092,-0.74798 1.31795,-0.27072 4.3532,-0.33256 3.94515,-0.0804 -0.15096,0.0933 0.181,0.17178 0.73268,0.17322 0.33918,8.8e-4 0.4445,-0.0289 0.4445,-0.12585 0,-0.21109 0.71152,-0.17177 0.85751,0.0474 0.1091,0.16379 0.23698,0.17914 2.10582,0.25283 1.09432,0.0431 2.94217,0.11764 4.106337,0.16554 2.517343,0.10358 3.271918,0.12872 8.932333,0.29765 0.86149,0.0257 2.63314,0.0831 3.937,0.12749 1.30387,0.0444 3.60892,0.11992 5.12234,0.16781 4.08168,0.12917 7.62091,0.24833 8.72066,0.29361 0.53552,0.0221 2.17382,0.0795 3.64067,0.1277 2.65142,0.0871 5.1157,0.17486 9.56733,0.3407 1.28059,0.0477 5.03344,0.18166 8.33967,0.29767 9.81526,0.34439 10.79229,0.37925 11.811,0.4214 0.53552,0.0222 1.69757,0.0605 2.58233,0.0852 0.88477,0.0247 1.95157,0.0616 2.37067,0.0819 0.79577,0.0385 2.38909,0.0985 4.61433,0.1735 0.72179,0.0243 2.16959,0.0812 3.21734,0.1263 1.04775,0.0451 2.95275,0.12098 4.23333,0.16858 1.28058,0.0476 3.18558,0.12258 4.23333,0.16665 1.04775,0.0441 2.5908,0.10173 3.429,0.12813 0.8382,0.0264 1.80975,0.0672 2.159,0.0906 0.34925,0.0234 1.6256,0.0803 2.83634,0.12654 2.35572,0.0898 4.73619,0.19173 7.66233,0.32793 1.00118,0.0466 2.52518,0.10712 3.38667,0.13449 0.86148,0.0274 1.66158,0.0653 1.778,0.0843 0.11641,0.019 0.95461,0.0569 1.86266,0.0842 0.90805,0.0273 2.1463,0.0844 2.75167,0.12687 0.60537,0.0424 1.95792,0.0993 3.00567,0.1264 1.04775,0.0271 2.2479,0.0655 2.667,0.0853 0.4191,0.0199 1.3716,0.0578 2.11666,0.0844 2.02503,0.0722 3.66827,0.13685 4.191,0.16492 0.25612,0.0138 1.51342,0.067 2.794,0.11827 8.87402,0.35551 11.27857,0.48031 11.49932,0.59685 0.0783,0.0413 0.32022,0.0478 0.53761,0.0143 0.35374,-0.0544 2.61225,0.0346 8.32541,0.3282 1.02446,0.0526 3.10091,0.15133 4.61433,0.2193 3.3028,0.14833 13.76958,0.69298 14.605,0.75998 0.32596,0.0262 2.42146,0.14045 4.65666,0.25401 2.2352,0.11355 5.45465,0.28344 7.15434,0.37752 1.69968,0.0941 4.51908,0.24793 6.26533,0.34188 1.74625,0.0939 4.07035,0.2258 5.16467,0.293 1.09431,0.0672 2.40876,0.14378 2.921,0.17016 1.55485,0.0801 12.12112,0.67813 14.26633,0.80751 0.76835,0.0463 2.5019,0.14235 3.85233,0.21337 4.57807,0.24075 6.20827,0.69635 8.128,2.27153 0.61429,0.50403 0.96463,0.87582 1.76668,1.87479 0.69218,0.86214 0.73865,0.9319 1.23461,1.85336 0.61755,1.14735 0.89859,2.07951 1.86621,6.18997 0.19731,0.8382 0.47097,2.00025 0.60813,2.58234 0.13715,0.58208 0.4355,1.82033 0.66299,2.75166 1.2508,5.12074 1.52541,6.25335 1.69357,6.985 0.26843,1.168 0.66453,2.82462 0.85023,3.556 0.16084,0.63349 0.38655,1.58253 0.62422,2.62467 0.2326,1.0199 0.64676,2.73699 1.31719,5.461001 0.8366,3.399113 1.21338,4.972541 1.90579,7.958667 0.49141,2.1193 0.75845,3.247864 1.78299,7.535333 0.41011,1.716219 0.93359,3.887225 1.26575,5.249334 0.15898,0.651933 0.53849,2.252133 0.84335,3.556 0.30488,1.303866 0.67017,2.846917 0.81177,3.429 0.1416,0.582083 0.38601,1.610783 0.54315,2.286 0.15713,0.675217 0.53881,2.294467 0.8482,3.598333 0.30938,1.303867 0.76711,3.246967 1.01716,4.318 0.25007,1.071034 0.60597,2.556934 0.79092,3.302 0.18494,0.745067 0.47533,1.964267 0.64531,2.709334 0.16998,0.745066 0.45717,1.964266 0.63822,2.709333 0.68657,2.825471 1.00844,4.189366 2.37778,10.075334 0.14083,0.605366 0.36912,1.576916 0.50729,2.159 0.13818,0.582083 0.46095,1.953683 0.71728,3.048 0.25632,1.094316 0.54056,2.294466 0.63163,2.667 0.25537,1.044625 0.64481,2.692442 0.89042,3.767666 0.12232,0.535515 0.40811,1.735665 0.63509,2.666995 0.22697,0.93134 0.62557,2.62679 0.88576,3.76767 0.26019,1.14088 0.56516,2.45533 0.67772,2.921 0.11256,0.46567 0.28513,1.18957 0.38349,1.60867 0.0983,0.4191 0.32713,1.3716 0.50841,2.11667 0.39623,1.62846 1.05238,4.42941 1.60659,6.858 0.13814,0.60536 0.28729,1.23401 0.33142,1.397 0.0442,0.16298 0.12706,0.46778 0.18426,0.67733 0.0572,0.20955 0.13203,0.5334 0.16628,0.71967 0.0342,0.18626 0.13834,0.64346 0.23131,1.016 0.093,0.37253 0.23432,0.98213 0.31411,1.35466 0.0798,0.37254 0.1815,0.82974 0.22604,1.016 0.0445,0.18627 0.15802,0.66252 0.25217,1.05834 0.0942,0.39581 0.26045,1.04351 0.36954,1.43933 0.32471,1.17806 0.39122,1.44401 0.46358,1.85354 0.0379,0.21457 0.10862,0.50443 0.15712,0.64413 0.11343,0.32674 0.23023,0.80195 0.35377,1.43933 0.0541,0.2794 0.13823,0.58223 0.18686,0.67296 0.0486,0.0907 0.11723,0.37649 0.15246,0.635 0.0352,0.25852 0.19667,0.98439 0.35876,1.61304 0.55113,2.13747 0.7394,3.3126 0.73985,4.61817 0,0.68004 -0.24514,2.06485 -0.47939,2.7055 -0.11374,0.31105 -0.15807,0.49731 -0.1869,0.78526 -0.006,0.0594 -0.10279,0.1429 -0.21522,0.18565 -0.11244,0.0427 -0.23004,0.14658 -0.26135,0.23073 -0.0313,0.0842 -0.3489,0.41706 -0.70575,0.73978 -1.08,0.9767 -2.24412,1.42474 -4.4158,1.69951 -1.37224,0.17363 -1.52694,0.30747 -0.66129,0.57214 0.93346,0.28538 1.40522,0.37538 1.54823,0.29536 0.13603,-0.0761 0.28785,-0.0253 0.1967,0.0658 -0.0928,0.0928 -1.06996,0.40154 -1.76166,0.55655 -0.72572,0.16264 -3.88458,0.38469 -4.13043,0.29034 -0.12502,-0.048 -5.59695,0.0482 -11.7869,0.20714 -1.79282,0.046 -4.80272,0.12294 -6.68867,0.17088 -7.07102,0.17978 -13.06578,0.35012 -20.955,0.59544 -11.51128,0.35795 -13.02808,0.40056 -21.03966,0.59102 -3.93489,0.0935 -8.65929,0.20742 -10.49867,0.25306 -4.41943,0.10965 -13.04559,0.30793 -20.27766,0.46609 -3.2131,0.0703 -7.2898,0.16539 -9.05934,0.21138 -1.76953,0.046 -5.08423,0.1224 -7.366,0.16977 -5.20149,0.10801 -9.34545,0.1996 -21.082,0.4659 -5.12233,0.11623 -11.88508,0.26706 -15.02833,0.3352 -3.14325,0.0681 -6.7056,0.1463 -7.91633,0.17372 -3.09993,0.0702 -13.14456,0.35536 -17.82234,0.50595 -2.16535,0.0697 -6.4897,0.20327 -9.60966,0.29681 -6.58411,0.19739 -15.46765,0.47259 -19.177,0.59409 -1.42029,0.0465 -5.80179,0.17923 -9.73667,0.2949 -6.75651,0.19862 -8.29848,0.24819 -14.68967,0.47224 -1.44356,0.0506 -2.75801,0.1232 -2.921,0.16131 l -0.29633,0.0693 0.254,0.0213 c 1.43922,0.12047 -8.191791,0.27794 -10.24467,0.1675 z m 45.592996,-3.05042 c 0,-0.0466 -0.0381,-0.0847 -0.0847,-0.0847 -0.0466,0 -0.0847,0.0381 -0.0847,0.0847 0,0.0466 0.0381,0.0847 0.0847,0.0847 0.0466,0 0.0847,-0.0381 0.0847,-0.0847 z m 2.37067,0 c 0,-0.0494 -0.28389,-0.0847 -0.68233,-0.0847 -0.43333,0 -0.66323,0.0309 -0.63,0.0847 0.0288,0.0466 0.33583,0.0847 0.68233,0.0847 0.36355,0 0.63,-0.0358 0.63,-0.0847 z m 2.04909,-0.0119 c 0.35864,-0.002 0.68712,0.0185 0.72993,0.045 0.0428,0.0265 0.41219,0.007 0.8208,-0.0428 0.50624,-0.0619 0.80312,-0.0635 0.9318,-0.005 0.11705,0.0533 0.31158,0.0584 0.51158,0.0133 0.17749,-0.04 0.35839,-0.0657 0.402,-0.0569 0.0436,0.009 0.0966,-0.0311 0.11763,-0.0885 0.0301,-0.082 -0.46773,-0.0929 -2.31775,-0.051 -1.29584,0.0294 -2.45133,0.0487 -2.56775,0.0429 -0.11641,-0.006 -0.30691,0.0144 -0.42333,0.0447 -0.20056,0.0523 -0.19611,0.0585 0.0847,0.11806 0.16298,0.0346 0.46778,0.045 0.67733,0.0231 0.20955,-0.0219 0.67444,-0.0412 1.03309,-0.043 z m 6.79858,-0.10188 c 0.4191,0.003 0.9525,0.0138 1.18533,0.0242 0.23283,0.0104 1.28058,-0.006 2.32833,-0.0363 2.18363,-0.0632 5.33328,-0.12375 6.26534,-0.12048 0.9178,0.003 5.461,-0.0747 5.461,-0.0937 0,-0.0127 2.04957,-0.0574 5.969,-0.13033 2.88542,-0.0537 5.60007,-0.11126 6.01133,-0.12753 0.11642,-0.005 0.30692,-0.002 0.42333,0.005 0.11642,0.007 1.01177,-0.008 1.98967,-0.035 0.9779,-0.0265 2.8067,-0.0682 4.064,-0.0926 1.2573,-0.0244 2.53365,-0.0649 2.83633,-0.0899 0.30269,-0.025 0.62654,-0.0445 0.71967,-0.0434 0.0931,0.001 0.58843,0.008 1.10067,0.0149 0.51223,0.007 1.06468,-0.0107 1.22766,-0.0395 0.48636,-0.0858 1.95439,-0.10985 2.00205,-0.0327 0.0243,0.0393 0.10767,0.0527 0.18525,0.0296 0.12808,-0.038 1.16666,-0.0633 1.58037,-0.0385 0.0931,0.006 0.41698,-0.0179 0.71967,-0.0523 0.30268,-0.0343 1.33138,-0.0786 2.286,-0.0984 0.95461,-0.0198 1.84996,-0.0395 1.98966,-0.0438 0.1397,-0.004 0.3302,-0.002 0.42334,0.006 0.19729,0.0161 2.09635,-0.0457 2.159,-0.0703 0.0233,-0.009 0.73618,-0.0122 1.58421,-0.007 0.99891,0.006 1.60459,-0.0237 1.71992,-0.0855 0.12123,-0.0649 0.21106,-0.0678 0.28161,-0.009 0.0578,0.048 0.34529,0.0694 0.65076,0.0485 0.30093,-0.0206 1.21391,-0.0566 2.02883,-0.0799 1.62906,-0.0467 3.22336,-0.0938 6.05367,-0.17891 1.02446,-0.0308 2.37701,-0.0654 3.00566,-0.077 2.04587,-0.0374 4.27064,-0.12191 4.49666,-0.17075 0.12154,-0.0263 0.52725,-0.009 0.90159,0.0376 0.46129,0.0578 0.77203,0.0574 0.96434,-0.001 0.15606,-0.0476 0.65522,-0.0833 1.10925,-0.0792 0.98018,0.009 0.68766,0.0131 2.6035,-0.0396 0.86148,-0.0237 1.69419,-0.0643 1.85047,-0.0903 0.15629,-0.0259 0.88019,-0.0619 1.60867,-0.0798 0.72849,-0.018 1.36262,-0.0368 1.40919,-0.0418 0.0466,-0.005 0.42757,-0.005 0.84667,0.001 0.4191,0.006 0.8763,-0.0271 1.016,-0.0724 0.2456,-0.0798 0.24699,-0.0831 0.0423,-0.10017 -0.42656,-0.0357 -4.30535,0.008 -5.29167,0.0591 -0.5588,0.0291 -1.1684,0.0419 -1.35466,0.0284 -0.18627,-0.0135 -0.4244,-0.019 -0.52917,-0.0122 -0.22237,0.0145 -0.53524,0.016 -0.80433,0.004 -0.10478,-0.005 -1.0668,0.012 -2.13784,0.0371 -1.07103,0.0251 -3.12843,0.0681 -4.572,0.0954 -3.16328,0.0599 -5.80794,0.12246 -7.239,0.17136 -0.58208,0.0199 -2.22038,0.0583 -3.64066,0.0854 -1.42029,0.0271 -3.51579,0.0676 -4.65667,0.0901 -1.14088,0.0224 -2.93158,0.0574 -3.97933,0.0776 -1.04775,0.0202 -2.95275,0.0593 -4.23334,0.0868 -1.28058,0.0275 -3.05223,0.0652 -3.937,0.0838 -0.88476,0.0186 -2.25636,0.0565 -3.048,0.0842 -0.79163,0.0277 -3.30623,0.0864 -5.588,0.13048 -2.28176,0.044 -5.59646,0.11645 -7.366,0.16092 -1.76953,0.0445 -4.30318,0.10447 -5.63033,0.13335 -1.32715,0.0289 -2.9083,0.068 -3.51367,0.0869 -0.60536,0.0189 -2.71991,0.0734 -4.699,0.12102 -7.37446,0.17758 -7.06952,0.16879 -10.83733,0.3124 -0.72178,0.0275 -1.72191,0.0547 -2.2225,0.0604 -0.50059,0.006 -0.91017,0.0385 -0.91017,0.0729 0,0.0959 0.40011,0.17457 0.61454,0.12075 0.10516,-0.0264 0.24804,-0.0116 0.3175,0.0328 0.0734,0.047 0.39207,0.056 0.7613,0.0216 0.34925,-0.0326 0.9779,-0.0568 1.397,-0.0538 z m 84.2364,-1.96959 c 0.20612,-0.0791 0.15873,-0.20261 -0.0777,-0.20261 -0.20556,0 -0.27033,0.0824 -0.15522,0.19756 0.0687,0.0687 0.0671,0.0687 0.23296,0.005 z m 1.4251,-0.0748 c 0.59855,-0.0565 0.6133,-0.0627 0.29458,-0.12449 -0.3525,-0.0683 -1.44954,0.0214 -1.24708,0.10204 0.30799,0.12262 0.39091,0.13646 0.55033,0.0918 0.0931,-0.0261 0.27411,-0.0573 0.40217,-0.0694 z m 3.55183,-0.0522 c 0.13937,-0.0746 0.15137,-0.1085 0.0586,-0.16581 -0.0641,-0.0396 -0.21213,-0.0492 -0.32894,-0.0213 -0.26655,0.0637 -0.2845,0.0795 -0.21585,0.1906 0.0719,0.11637 0.26481,0.11499 0.48615,-0.004 z m -1.58333,-0.0756 c 0.0315,-0.0511 -0.0821,-0.0847 -0.28635,-0.0847 -0.18626,0 -0.36221,0.0381 -0.39099,0.0847 -0.0315,0.0511 0.0821,0.0847 0.28634,0.0847 0.18627,0 0.36222,-0.0381 0.391,-0.0847 z m 0.95317,-0.036 c 0.0268,-0.0268 -0.12909,-0.0487 -0.34639,-0.0487 -0.2184,0 -0.39512,0.0396 -0.39512,0.0885 0,0.0898 0.64665,0.0551 0.74151,-0.0398 z m 1.29049,0.036 c 0,-0.0466 -0.0594,-0.0847 -0.13199,-0.0847 -0.0726,0 -0.10845,0.0381 -0.0797,0.0847 0.0288,0.0466 0.0882,0.0847 0.13199,0.0847 0.0438,0 0.0797,-0.0381 0.0797,-0.0847 z m -154.10499,-0.52916 c -0.58338,-0.69976 -1.09737,-1.5018 -1.51225,-2.35972 -0.39034,-0.80717 -0.4511,-0.72953 -0.0905,0.11567 0.29961,0.70232 1.05063,1.83241 1.57571,2.37105 0.21563,0.22119 0.40918,0.40216 0.43014,0.40216 0.0209,0 -0.16043,-0.23812 -0.40308,-0.52916 z m 155.62899,0.4445 c 0,-0.0466 -0.0571,-0.0847 -0.127,-0.0847 -0.0699,0 -0.127,0.0381 -0.127,0.0847 0,0.0466 0.0572,0.0847 0.127,0.0847 0.0699,0 0.127,-0.0381 0.127,-0.0847 z m -15.1765,-52.715986 13.99117,-0.0522 V 95.84586 c 0,-0.10033 -0.42025,-2.543565 -0.93389,-5.429411 -0.51364,-2.885847 -1.41097,-7.952097 -1.99406,-11.25833 -0.5831,-3.306234 -1.43734,-8.125884 -1.89832,-10.710334 -0.46098,-2.58445 -1.26116,-7.0993 -1.7782,-10.033 -0.51703,-2.9337 -1.54573,-8.74395 -2.28601,-12.911667 C 40.8961,41.335402 39.81012,35.201302 39.22309,31.871785 38.63606,28.54227 38.12938,25.79517 38.09713,25.76711 38.06493,25.73901 35.77156,25.65421 33.00084,25.57857 30.23012,25.50297 17.03506,25.13196 3.67847,24.75417 -9.67811,24.3764 -20.61944,24.08052 -20.6356,24.09666 c -0.0161,0.0162 0.34855,2.79133 0.81043,6.167076 0.46187,3.375745 1.18443,8.671366 1.60568,11.768049 0.42125,3.096683 1.12507,8.240183 1.56403,11.43 0.43897,3.189817 1.10533,8.066617 1.48081,10.837334 0.37549,2.770716 1.08027,7.933266 1.56617,11.472333 0.48591,3.539067 1.30477,9.539817 1.8197,13.335 0.51494,3.795184 0.95069,6.941397 0.96835,6.991596 0.0336,0.0955 18.92851,0.08849 47.3561,-0.01758 z m -25.79319,-3.44954 c -0.12216,-0.147185 -1.23961,-7.517638 -1.16804,-7.704125 0.042,-0.109398 0.17325,-0.138083 0.62724,-0.137058 0.31579,8.46e-4 0.62433,0.03311 0.68567,0.072 0.0694,0.04403 0.19731,0.642552 0.33892,1.586205 l 0.22743,1.515499 0.57123,0.02504 c 0.50269,0.02203 0.57114,0.0068 0.57038,-0.127 -8.5e-4,-0.08362 -0.0961,-0.757343 -0.21239,-1.497161 -0.15919,-1.012333 -0.18783,-1.373665 -0.11577,-1.4605 0.12649,-0.152408 1.20326,-0.159198 1.32842,-0.0084 0.12008,0.144687 1.2481,7.524556 1.17805,7.707123 -0.0448,0.116806 -0.16563,0.144297 -0.62962,0.143247 -0.31579,-8.47e-4 -0.62713,-0.03484 -0.69186,-0.07584 -0.0765,-0.04842 -0.20082,-0.604198 -0.35491,-1.586204 -0.13045,-0.831419 -0.23941,-1.52119 -0.24213,-1.532831 -0.003,-0.01164 -0.26403,-0.02117 -0.58072,-0.02117 h -0.5758 l 0.22315,1.4605 c 0.14009,0.916898 0.19574,1.515652 0.14948,1.608667 -0.0594,0.119498 -0.18575,0.148166 -0.65298,0.148166 -0.3877,0 -0.61122,-0.03843 -0.67575,-0.116188 z m 4.98779,-0.0091 c -0.16335,-0.196833 -1.28626,-7.586497 -1.17348,-7.722404 0.0703,-0.08473 0.48995,-0.11099 1.77313,-0.11099 1.95101,0 1.90645,-0.02027 1.95444,0.889 l 0.0268,0.508 -1.05833,0.04233 c -0.63105,0.02524 -1.05437,0.07651 -1.04853,0.127 0.005,0.04657 0.0585,0.437091 0.11811,0.867833 l 0.10831,0.783167 h 0.69121 c 0.41974,0 0.74774,0.04156 0.83516,0.105833 0.19299,0.141867 0.37394,1.136125 0.23237,1.276705 -0.0632,0.06278 -0.3447,0.09163 -0.76767,0.07867 -0.36731,-0.01126 -0.68457,0.0078 -0.70503,0.04233 -0.0205,0.03454 0.0251,0.443789 0.10128,0.909456 l 0.13846,0.846666 1.08256,0.02372 c 1.22385,0.02682 1.16223,-0.01196 1.28254,0.807068 0.0962,0.654652 0.10668,0.650884 -1.81477,0.650884 -1.37323,0 -1.69121,-0.02242 -1.77657,-0.125273 z m 4.30145,0.01334 c -0.0679,-0.06789 -0.34234,-1.58849 -0.69753,-3.864288 -0.57225,-3.666541 -0.58194,-3.75517 -0.42333,-3.875541 0.13079,-0.09927 0.38426,-0.114503 1.30531,-0.07845 1.30586,0.0511 1.64593,0.138591 2.12171,0.545838 0.44257,0.378832 0.63022,0.762338 0.79308,1.62085 0.18646,0.982955 0.17248,1.560026 -0.0485,2.002544 l -0.18175,0.363906 0.65485,1.522849 c 0.36015,0.837565 0.64155,1.592385 0.62531,1.677373 -0.0249,0.130624 -0.12836,0.158302 -0.66868,0.17896 -0.52861,0.02022 -0.66178,-0.0018 -0.76991,-0.127 -0.0719,-0.08329 -0.36959,-0.732459 -0.6615,-1.442601 -0.51093,-1.242915 -0.53987,-1.291167 -0.77434,-1.291167 -0.30071,0 -0.30082,0.0029 -0.0633,1.492589 0.14543,0.912173 0.15979,1.155361 0.0743,1.258384 -0.13774,0.16598 -1.12347,0.178062 -1.28569,0.01576 z m 1.66007,-4.339107 c 0.1645,-0.164508 0.16515,-0.276378 0.006,-1.108338 -0.0781,-0.409405 -0.18158,-0.704156 -0.27018,-0.76945 -0.18149,-0.133748 -0.95792,-0.141936 -0.95792,-0.0101 0,0.140978 0.2569,1.791428 0.2981,1.915101 0.052,0.156176 0.76102,0.135288 0.92352,-0.02721 z m 3.44962,4.377173 C 25.03498,92.6058 23.85889,85.674317 23.85743,85.105975 l -8.5e-4,-0.232833 h 1.7801 c 2.02955,0 1.8627,-0.06867 1.98374,0.816373 0.0441,0.322224 0.0303,0.453771 -0.053,0.506179 -0.0619,0.03896 -0.54115,0.05945 -1.06502,0.04555 l -0.9525,-0.02527 0.005,0.238752 c 0.003,0.131309 0.0505,0.524501 0.10584,0.873751 l 0.10051,0.635 0.74953,0.04489 c 0.87568,0.05245 0.93735,0.10177 1.02728,0.821555 0.0774,0.61932 -0.0218,0.699889 -0.86165,0.699889 -0.37889,0 -0.61882,0.03475 -0.61882,0.08961 0,0.241291 0.1859,1.330384 0.25567,1.497889 0.076,0.182439 0.12201,0.1905 1.08681,0.1905 0.70689,0 1.03386,0.03183 1.09597,0.106671 0.0487,0.05867 0.11588,0.348378 0.14931,0.643797 0.0472,0.417085 0.0344,0.553788 -0.057,0.6117 -0.15045,0.09527 -3.29771,0.09827 -3.44753,0.0033 z M -9.53812,88.9734 c -0.1579,-0.157912 -0.17391,-0.469553 -0.0314,-0.612021 0.11158,-0.111583 5.78225,-0.123207 12.88777,-0.02641 l 3.80304,0.05181 0.0785,0.235678 c 0.17056,0.512284 0.65965,0.483988 -8.36619,0.483988 -7.37673,0 -8.2525,-0.01392 -8.37164,-0.133045 z m 40.50287,-0.08937 c -0.0467,-0.122809 -0.0623,-0.294445 -0.0347,-0.381432 0.0486,-0.15295 0.31263,-0.158149 8.02932,-0.158149 6.41116,0 8.00867,0.02162 8.12955,0.110008 0.10009,0.07319 0.14093,0.193624 0.12202,0.359833 l -0.0284,0.249826 -8.06644,0.0216 -8.06643,0.02159 z M 10.2859,81.10594 c -15.52306,-0.06785 -22.87007,-0.127965 -22.92971,-0.187604 -0.0483,-0.04828 -0.29246,-1.588017 -0.54263,-3.42166 -0.25019,-1.833643 -1.06483,-7.810644 -1.81033,-13.282227 -0.74549,-5.471583 -1.71751,-12.596284 -2.16004,-15.832667 -0.44253,-3.236383 -1.09191,-7.998883 -1.44308,-10.583333 -0.35117,-2.58445 -0.90461,-6.641347 -1.22986,-9.015319 -0.48393,-3.53198 -0.57148,-4.33624 -0.4818,-4.42592 0.0897,-0.0897 5.35506,0.0377 28.97582,0.70107 15.87643,0.44585 28.95908,0.83739 29.07256,0.87007 0.1348,0.0388 0.22884,0.14742 0.27125,0.31326 0.0357,0.13961 0.73511,4.044789 1.55421,8.678172 0.8191,4.633383 1.92432,10.862733 2.45603,13.843 0.53172,2.980267 1.61408,9.076267 2.40524,13.546667 0.79116,4.4704 1.86171,10.504331 2.379,13.408736 0.5173,2.904406 0.92037,5.333281 0.89573,5.3975 -0.0538,0.140132 -3.3167,0.139285 -37.41239,-0.0097 z M 29.97123,65.168625 c 0.9673,-0.436431 1.59028,-1.365046 1.59028,-2.37048 0,-0.263237 -0.30695,-2.309681 -0.6821,-4.547658 -0.79418,-4.737719 -0.83783,-4.877469 -1.80673,-5.783835 -0.94099,-0.880245 -1.95706,-1.259763 -3.18272,-1.188813 -1.49009,0.08626 -2.52298,1.036989 -2.60264,2.39561 -0.0447,0.762152 1.23937,8.657251 1.50608,9.260188 0.43142,0.975292 1.42872,1.873724 2.51565,2.266247 0.49008,0.176979 0.68747,0.201693 1.41612,0.177292 0.63673,-0.02132 0.9457,-0.07303 1.24606,-0.208551 z m -2.38906,-1.85116 c -0.35058,-0.151858 -0.73073,-0.49591 -0.89473,-0.809778 -0.13426,-0.256971 -1.39127,-7.778953 -1.39127,-8.325459 0,-0.831495 0.97828,-1.326016 1.82672,-0.923409 0.34002,0.161349 0.85904,0.713046 0.92573,0.983996 0.0261,0.105952 0.34766,1.974376 0.71464,4.152062 0.71296,4.23081 0.71948,4.325925 0.32187,4.698382 -0.39255,0.367733 -0.97204,0.454177 -1.50296,0.224206 z m -6.7608,1.727564 c 0.58013,-0.267665 1.13141,-0.800142 1.35744,-1.31114 0.29524,-0.66741 0.27981,-1.084664 -0.13559,-3.668107 -0.21339,-1.32715 -0.4077,-2.498725 -0.4318,-2.6035 -0.0436,-0.189755 -0.0504,-0.1905 -1.73937,-0.1905 H 18.1765 l 0.0499,0.275167 c 0.0275,0.151342 0.0969,0.560917 0.15431,0.910167 l 0.10437,0.635 0.5619,0.02487 c 0.32393,0.01434 0.5999,0.07065 0.65162,0.132978 0.10081,0.121471 0.5177,2.551049 0.51722,3.014226 -0.001,0.980796 -1.23449,1.429681 -2.15815,0.78541 -0.60551,-0.422359 -0.65857,-0.616669 -1.31186,-4.804147 -0.32691,-2.0955 -0.59423,-3.957904 -0.59403,-4.138676 8.4e-4,-0.451934 0.26853,-0.852407 0.68102,-1.017448 0.39735,-0.158987 0.52221,-0.164998 0.95148,-0.04579 0.3668,0.101863 0.86068,0.504766 1.03721,0.846142 0.0664,0.128389 0.18373,0.61286 0.26074,1.076613 l 0.14004,0.843178 0.6367,0.05382 c 0.35019,0.0296 0.82147,0.05382 1.04727,0.05382 0.4843,0 0.47858,0.02328 0.2808,-1.143 -0.18111,-1.067959 -0.56713,-1.830484 -1.24867,-2.466492 -1.83713,-1.714432 -4.66609,-1.547986 -5.60173,0.32959 -0.17363,0.348446 -0.21651,0.558648 -0.21651,1.061534 0,0.797696 1.20999,8.493049 1.41913,9.025492 0.31184,0.793869 1.1639,1.715813 1.96754,2.128901 0.6836,0.351392 1.20231,0.463042 2.032,0.437397 0.65346,-0.02021 0.89404,-0.06626 1.28253,-0.245508 z m -9.78899,0.0542 c 1.30077,-0.338811 2.10749,-1.349689 2.09121,-2.620451 -0.004,-0.325966 -0.29568,-2.421466 -0.64779,-4.656666 -0.56957,-3.615623 -0.6679,-4.12005 -0.89125,-4.572001 -0.4532,-0.917033 -1.54711,-1.837038 -2.54042,-2.136546 -0.66658,-0.20099 -1.86263,-0.194979 -2.45929,0.01237 -0.66428,0.230835 -1.45664,1.030452 -1.64303,1.658061 -0.0742,0.249987 -0.13501,0.590474 -0.13507,0.756649 -5e-5,0.166175 0.2875,2.207133 0.63902,4.535467 0.70891,4.695689 0.75781,4.881812 1.49156,5.677848 1.09232,1.185028 2.69231,1.710639 4.09506,1.345269 z M 8.99784,63.062513 C 8.59511,62.842659 8.35134,62.589598 8.19088,62.224778 8.10208,62.022865 7.79434,60.25748 7.4288,57.85293 L 6.81567,53.81974 6.97542,53.492597 c 0.22522,-0.461205 0.79954,-0.743204 1.34658,-0.661171 0.44751,0.06711 1.00872,0.449394 1.23929,0.844186 0.10133,0.173499 0.35035,1.558366 0.78783,4.381441 0.70434,4.545093 0.69917,4.405503 0.1809,4.883556 -0.29177,0.269122 -1.13902,0.336534 -1.53218,0.121904 z m -4.36033,1.828351 c 0,-0.173872 -0.26515,-1.726633 -0.30618,-1.793012 -0.0234,-0.0378 -0.89282,-0.06874 -1.93212,-0.06874 -1.48221,0 -1.91007,-0.02462 -1.98441,-0.114199 -0.0521,-0.06281 -0.48541,-2.777431 -0.96286,-6.0325 l -0.8681,-5.918302 -1.03717,-0.02377 c -0.57044,-0.01307 -1.03716,-0.0072 -1.03716,0.01305 0,0.06276 1.93905,13.371737 1.99015,13.659722 l 0.0482,0.271662 0.65299,0.0288 c 1.67043,0.07367 5.43666,0.05795 5.43666,-0.02271 z M 28.59817,46.326046 c 0,-0.05962 -0.24765,-0.670348 -0.55033,-1.357173 -0.30268,-0.686824 -0.55033,-1.311817 -0.55033,-1.388872 0,-0.07706 0.0814,-0.30828 0.18092,-0.513833 0.1786,-0.368952 0.17912,-0.384573 0.0406,-1.218913 C 27.562,40.901749 27.37502,40.464124 26.98941,40.139656 26.647,39.851535 26.30664,39.773024 25.10571,39.705121 l -0.99483,-0.05624 0.005,0.238955 c 0.003,0.131419 0.24086,1.629596 0.52917,3.329279 l 0.52421,3.090334 0.4445,0.02559 c 0.24448,0.01407 0.44425,-0.005 0.44395,-0.04233 0,-0.03736 -0.0763,-0.506078 -0.16878,-1.041595 -0.0925,-0.535516 -0.16846,-1.080431 -0.16877,-1.210928 -8.5e-4,-0.232723 0.008,-0.236762 0.4381,-0.211666 l 0.43866,0.02559 0.37156,0.846667 c 0.20435,0.465667 0.46204,1.046692 0.57265,1.291167 l 0.2011,0.4445 h 0.42802 c 0.29137,0 0.42801,-0.0346 0.42801,-0.108399 z m -3.03222,-3.470935 c -0.10603,-0.127746 -0.45374,-2.085832 -0.38901,-2.190581 0.0245,-0.03965 0.27384,-0.07209 0.55407,-0.07209 0.69136,0 0.93984,0.236584 1.07727,1.025694 0.13466,0.773295 0.1218,0.981067 -0.0728,1.175639 -0.19967,0.199661 -1.0191,0.242638 -1.16956,0.06133 z m -7.55667,3.243495 c 0.22842,-0.116518 0.38258,-0.282601 0.51363,-0.553297 l 0.18724,-0.386791 -0.4388,-2.727537 C 18.03,40.930832 17.80688,39.679323 17.77552,39.649842 c -0.0314,-0.02949 -0.23799,-0.07944 -0.45918,-0.111023 -0.38577,-0.05508 -0.40217,-0.04898 -0.40217,0.14958 0,0.113843 0.17135,1.268705 0.38078,2.566349 0.20943,1.297652 0.38088,2.452158 0.381,2.565569 8.5e-4,0.695799 -1.04956,0.804291 -1.39085,0.143671 -0.0762,-0.14754 -0.31694,-1.41097 -0.54254,-2.847543 l -0.40553,-2.582334 -0.4391,-0.02559 c -0.2415,-0.01407 -0.43909,-0.0044 -0.43909,0.02158 0,0.02594 0.19256,1.256657 0.42792,2.73492 0.34647,2.176212 0.46631,2.753351 0.62965,3.03237 0.19952,0.340834 0.64905,0.711573 1.0591,0.873439 0.36604,0.144492 1.07943,0.108559 1.43377,-0.07222 z M 8.40919,45.889259 C 8.72573,45.68186 8.95476,45.25387 8.95565,44.868111 8.9565,44.681845 8.81943,43.634095 8.65199,42.539778 8.41399,40.984257 8.30421,40.474919 8.14889,40.205501 7.94641,39.854295 7.49482,39.487959 7.06616,39.327177 c -0.3655,-0.137092 -1.08026,-0.107255 -1.41097,0.0589 -0.37022,0.186004 -0.67902,0.63975 -0.67902,0.997754 0,0.384768 0.57406,4.085091 0.68695,4.428042 0.136,0.413088 0.56456,0.858892 1.0481,1.090235 0.34776,0.16637 0.51905,0.196148 0.9531,0.165668 0.29253,-0.02055 0.62561,-0.100373 0.74487,-0.17852 z M 6.86873,45.086018 C 6.71243,44.990708 6.56523,44.807092 6.51264,44.641831 6.39902,44.28486 5.90751,41.04862 5.90751,40.657562 c 0,-0.740724 1.07155,-0.843018 1.39634,-0.133299 0.0704,0.153915 0.26093,1.149256 0.42334,2.211865 0.26693,1.74653 0.28348,1.954852 0.17227,2.169906 -0.19929,0.385368 -0.58379,0.452509 -1.03073,0.179984 z m -8.49837,0.69226 c -0.001,-0.03493 -0.0935,-0.662009 -0.20558,-1.393529 L -2.039,43.054721 -1.61923,41.252083 c 0.23088,-0.991447 0.43866,-1.864276 0.46174,-1.939612 0.0335,-0.109423 -0.0461,-0.148658 -0.39589,-0.195055 -0.27965,-0.0371 -0.47164,-0.02463 -0.53133,0.03452 -0.0514,0.05094 -0.1887,0.57686 -0.30512,1.168722 -0.15854,0.806035 -0.24354,1.076122 -0.33866,1.076122 -0.079,0 -0.34335,-0.440131 -0.69926,-1.164167 L -4,39.068447 h -0.51302 -0.51303 l 0.41785,0.783166 c 0.22982,0.430742 0.69296,1.308583 1.02921,1.950763 l 0.61136,1.167604 0.2069,1.363633 c 0.1138,0.749994 0.227,1.396153 0.25156,1.435904 0.0549,0.08887 0.88205,0.09711 0.87953,0.0088 z m -105.98932,99.521912 c -0.18078,-0.58529 -0.33337,-1.87101 -0.55974,-4.7164 -0.16924,-2.12717 -0.5243,-6.94881 -0.63596,-8.636 -0.0478,-0.72178 -0.14469,-2.11243 -0.21538,-3.09033 -0.2032,-2.81087 -0.37365,-5.19469 -0.42075,-5.88434 -0.0266,-0.38894 -0.0142,-0.58579 0.0319,-0.508 0.0414,0.0699 0.10092,0.508 0.1323,0.97367 0.0314,0.46567 0.0734,1.01812 0.0934,1.22767 0.0768,0.80578 0.2151,2.29978 0.33699,3.64066 0.17601,1.93637 0.28293,2.82363 0.93356,7.747 0.0677,0.51224 0.19743,1.69998 0.2883,2.63943 0.0909,0.93945 0.21464,2.04435 0.27505,2.45534 0.13672,0.9301 0.14285,4.31427 0.008,4.55264 -0.0809,0.14328 -0.11581,0.091 -0.26787,-0.40134 z m -1.85456,-23.34307 c 0,-0.16298 0.0174,-0.22966 0.0387,-0.14816 0.0213,0.0815 0.0213,0.21484 0,0.29633 -0.0213,0.0815 -0.0387,0.0148 -0.0387,-0.14817 z m -0.1298,-0.69501 c -0.0263,-0.19599 -0.0134,-0.41506 0.0286,-0.48683 0.0519,-0.0886 0.0772,0.026 0.079,0.35634 0.003,0.57458 -0.0409,0.62785 -0.10759,0.13049 z m -0.0378,-1.46399 c 9.4e-4,-0.18626 0.0183,-0.2525 0.0385,-0.14717 0.0203,0.10531 0.0195,0.25771 -0.002,0.33866 -0.0212,0.0809 -0.0378,-0.005 -0.0368,-0.19149 z m -0.0927,-1.05833 c 0,-0.11642 0.0192,-0.16404 0.0427,-0.10583 0.0235,0.0582 0.0235,0.15345 0,0.21166 -0.0235,0.0582 -0.0427,0.0106 -0.0427,-0.10583 z m -0.0913,-1.06539 c 0.004,-0.0986 0.0241,-0.11869 0.0511,-0.0512 0.0245,0.0611 0.0215,0.13415 -0.007,0.16228 -0.0281,0.0281 -0.0482,-0.0219 -0.0445,-0.11112 z m -1.68037,-21.794611 c 0,-0.162984 0.0174,-0.229659 0.0387,-0.148167 0.0213,0.08149 0.0213,0.214842 0,0.296333 -0.0213,0.08149 -0.0387,0.01482 -0.0387,-0.148166 z m -2.46829,-33.662054 c 0.004,-0.09864 0.0241,-0.118694 0.0512,-0.05115 0.0245,0.06112 0.0214,0.134146 -0.007,0.16228 -0.0281,0.02814 -0.0481,-0.02188 -0.0445,-0.111125 z m -0.0683,-0.54328 c 0,-0.20955 0.0165,-0.295275 0.0367,-0.1905 0.0202,0.104775 0.0202,0.276225 0,0.381 -0.0202,0.104775 -0.0367,0.01905 -0.0367,-0.1905 z m -0.0953,-1.570567 0.0124,-0.588433 0.0585,0.508 c 0.0322,0.2794 0.0266,0.544195 -0.0125,0.588433 -0.039,0.04424 -0.0654,-0.184361 -0.0585,-0.508 z m -0.0958,-0.948266 c -6.8e-4,-0.151342 0.0133,-0.275167 0.0312,-0.275167 0.077,0 0.1097,0.330056 0.0431,0.435127 -0.0496,0.07833 -0.0734,0.02712 -0.0743,-0.15996 z"
         id="path1203"
         inkscape:connector-curvature="0" />
      <path
         sodipodi:nodetypes="ccscccccccccccccccccccccccccccccccccsccccccsccccccscccscccccccccscccccccccsssssscccccccccscccccscccscccccccccccccccscccccssccccccccccsccccccsccccccccccccccccccccccccccccccccccccccccscccsccccccccsccccccscccccscsccccccsscsscccssscccccccccsccccscccsccccccccccccccccccccccccscccssccccccccccccccccccscssccsccccccccccccccsccccccccccccccscccsccccccccscccscccsccccccccccccccccccscccscssccccccccccccccsccscccsssscsccccccccsccscccsccccccccsccccccccccscccccccccccccccccccsccccsccccscccccccccccccsccccssccssccccccsscsccccccccccccccccccc"
         style="fill:#ffffff;stroke-width:0.08466667;"
         d="m -94.040121,153.98724 c -0.558038,-0.0175 -1.045625,-0.0628 -1.083513,-0.10073 -0.07756,-0.0775 1.703925,-0.15858 4.722808,-0.2148 1.992186,-0.0371 2.052826,-0.01 0.423336,0.18961 -0.877048,0.10741 -2.776443,0.16628 -4.062631,0.12592 z m -4.573371,-0.24047 c -0.465667,-0.0609 -0.941917,-0.14941 -1.058334,-0.19678 l -0.211666,-0.0861 0.208059,-0.005 c 0.114436,-0.003 0.666886,0.0531 1.227667,0.12456 0.560781,0.0715 1.438707,0.16134 1.95094,0.19974 l 0.931334,0.0698 -1.100667,0.002 c -0.605367,0.001 -1.481667,-0.0474 -1.947333,-0.10823 z m 3.386666,-1.73235 c -2.394424,-0.0537 -2.710739,-0.0782 -3.605818,-0.27934 -1.440606,-0.32368 -2.431006,-0.72507 -3.463846,-1.40385 -0.51239,-0.33672 -1.77518,-1.51086 -2.05852,-1.914 -0.0989,-0.14067 0.18096,0.0804 0.62187,0.49137 0.84225,0.78499 1.98012,1.55134 2.72187,1.83318 0.50046,0.19016 0.62239,0.16966 0.26729,-0.045 -2.35453,-1.42301 -3.73866,-2.87992 -4.60827,-4.85056 -0.54925,-1.24467 -0.74985,-2.24838 -0.91638,-4.58514 -0.10095,-1.41662 -0.44398,-5.80071 -0.72207,-9.22867 -0.11523,-1.42028 -0.26961,-3.42053 -0.34307,-4.445 -0.0735,-1.02446 -0.19234,-2.52941 -0.26417,-3.34433 -0.0718,-0.81492 -0.14797,-1.76742 -0.1692,-2.11667 -0.0212,-0.34925 -0.0945,-1.30175 -0.16287,-2.11666 -0.15266,-1.82026 -0.29746,-3.73993 -0.34168,-4.52967 -0.0182,-0.32597 -0.0898,-1.25942 -0.15904,-2.07433 -0.0692,-0.81492 -0.18256,-2.22462 -0.25185,-3.13267 -0.28939,-3.79207 -0.33267,-4.24194 -0.4128,-4.29147 -0.0537,-0.0332 -0.0656,0.0978 -0.0331,0.36295 0.0491,0.39994 0.12878,1.40947 0.31691,4.01319 0.0488,0.67521 0.12404,1.64676 0.16722,2.159 0.0962,1.14146 0.21756,2.77753 0.33906,4.572 0.1547,2.2848 0.16496,2.42389 0.25598,3.47133 0.0486,0.5588 0.14229,1.8923 0.20827,2.96333 0.066,1.07104 0.15937,2.40454 0.20752,2.96334 0.22315,2.59005 0.3538,4.20719 0.47882,5.92666 0.0745,1.02447 0.14929,2.03412 0.16624,2.24367 0.0674,0.83321 0.30025,3.91748 0.37714,4.99533 0.0448,0.62865 0.13867,1.82157 0.20851,2.65094 0.1494,1.77418 0.15352,1.93285 0.0454,1.74821 -0.21528,-0.36768 -0.35528,-1.68384 -0.72459,-6.81215 -0.28956,-4.02082 -0.61344,-8.25835 -0.76036,-9.94833 -0.0668,-0.76835 -0.21782,-2.7305 -0.33559,-4.36033 -0.44598,-6.17152 -0.94021,-12.57191 -1.40235,-18.161 -0.0699,-0.84523 -0.24677,-3.18244 -0.80414,-10.62567 -0.0697,-0.931333 -0.22128,-2.969683 -0.33675,-4.529667 -0.11547,-1.559983 -0.26723,-3.560233 -0.33725,-4.445 -0.07,-0.884767 -0.18468,-2.332567 -0.25482,-3.217333 -0.0701,-0.884767 -0.16417,-2.123017 -0.20896,-2.751667 -0.19322,-2.711806 -0.3639,-5.024924 -0.63724,-8.636 -0.16038,-2.118783 -0.31187,-4.138083 -0.33663,-4.487333 -0.0248,-0.34925 -0.10125,-1.397 -0.16996,-2.328334 -0.1485,-2.012713 -0.33133,-4.674082 -0.50896,-7.408333 -0.0711,-1.094317 -0.20585,-3.113617 -0.29948,-4.487334 -0.0936,-1.373716 -0.28426,-4.288366 -0.42362,-6.477 -0.28496,-4.47509 -0.75994,-11.653113 -1.01127,-15.282333 -0.0919,-1.327146 -0.2261,-3.365496 -0.29821,-4.529666 -0.19017,-3.07006 -0.52824,-8.26209 -0.72144,-11.07964 -0.0922,-1.34401 -0.24358,-3.59191 -0.33649,-4.99534 -0.0929,-1.40343 -0.20823,-3.14224 -0.25625,-3.86402 -0.79916,-12.01216 -0.83836,-12.81034 -0.68163,-13.8822 0.11681,-0.79884 0.45231,-1.8136 0.79032,-2.39037 0.7016,-1.19718 2.45162,-2.51968 3.33775,-2.52236 0.19516,-5.9e-4 0.38029,-0.0423 0.4114,-0.0926 0.0311,-0.0503 0.1425,-0.07 0.24752,-0.0436 0.10992,0.0276 0.4088,-0.0406 0.70427,-0.16065 0.43896,-0.17836 0.73804,-0.22125 2.06464,-0.29609 1.59258,-0.0898 1.98733,-0.0847 5.40367,0.0701 1.09431,0.0496 2.75166,0.11177 3.683,0.13822 0.93133,0.0264 1.97908,0.0658 2.32833,0.0874 0.34925,0.0216 1.6256,0.06 2.836333,0.0853 1.210733,0.0253 2.372783,0.0628 2.582333,0.0834 0.20955,0.0206 1.2573,0.0582 2.328333,0.0836 1.071031,0.0254 2.366431,0.0643 2.878661,0.0864 0.51224,0.0221 1.82669,0.061 2.921,0.0863 1.09432,0.0253 2.18017,0.0633 2.413,0.0843 0.23284,0.021 1.28059,0.0588 2.32834,0.0839 1.9658,0.0471 4.24878,0.12314 10.16,0.33821 1.88595,0.0686 4.572,0.16332 5.969,0.21047 1.397,0.0472 3.6068,0.12392 4.91066,0.17062 7.99611,0.28635 9.61064,0.34552 11.557,0.42349 1.18745,0.0476 2.78765,0.10598 3.556,0.12981 0.76835,0.0238 2.3876,0.0804 3.59834,0.12582 1.21073,0.0454 2.82998,0.10321 3.59833,0.12851 2.69818,0.0888 10.64965,0.39216 17.653,0.67343 9.62249,0.38647 11.4601,0.46533 14.90133,0.63954 0.88477,0.0448 2.08492,0.10157 2.667,0.12616 3.10911,0.13138 8.9881,0.38867 10.541,0.46132 0.9779,0.0457 2.29235,0.10278 2.921,0.12673 1.90243,0.0725 5.10701,0.2109 6.90034,0.29806 0.93133,0.0453 2.58868,0.1215 3.683,0.16942 3.7774,0.16541 9.19059,0.42435 10.541,0.50423 0.74506,0.0441 1.96426,0.10372 2.70933,0.13256 0.74507,0.0288 2.84057,0.1264 4.65667,0.21679 1.8161,0.0904 4.50215,0.21991 5.969,0.28781 1.46685,0.0679 3.429,0.16241 4.36033,0.21003 0.93133,0.0476 2.45533,0.12427 3.38667,0.17032 2.95392,0.14606 5.09793,0.25684 7.45066,0.38497 1.2573,0.0685 4.1529,0.21962 6.43467,0.33589 6.37829,0.325 8.93296,0.45919 10.45633,0.54923 0.76835,0.0454 2.2352,0.12295 3.25967,0.17231 1.02446,0.0494 2.47226,0.12625 3.21733,0.17087 2.6233,0.15711 4.33556,0.25134 6.05367,0.33316 0.95461,0.0455 2.70721,0.14029 3.89466,0.21074 1.18745,0.0704 2.8829,0.16788 3.76767,0.21653 0.88477,0.0486 2.54212,0.14676 3.683,0.21804 1.14088,0.0713 2.95063,0.16443 4.02167,0.20698 2.70375,0.10742 4.61766,0.42648 5.86639,0.97797 1.23013,0.54328 2.78723,1.83893 3.77734,3.14309 0.82517,1.0869 1.7276,2.98697 2.12276,4.46945 0.40906,1.53466 0.50397,1.92513 1.10099,4.52966 0.43244,1.88655 0.57833,2.4948 0.76152,3.175 0.34268,1.27241 1.59205,6.40125 2.33055,9.56734 0.19552,0.8382 0.40832,1.7145 0.47288,1.94733 0.136,0.49045 0.43897,1.7496 0.71302,2.96333 0.10513,0.46567 0.4564,1.91347 0.78058,3.217336 0.95122,3.825816 1.1856,4.802784 2.29523,9.567333 0.75221,3.229856 1.28635,5.477663 1.79058,7.535334 0.35403,1.444735 2.15624,8.935246 2.33245,9.694333 0.0919,0.395817 0.32083,1.367367 0.50877,2.159 0.49485,2.084367 0.60444,2.655147 0.54547,2.840948 -0.0309,0.0973 8.5e-4,0.218465 0.077,0.294699 0.0712,0.0712 0.15162,0.271111 0.17871,0.444238 0.0271,0.173135 0.14045,0.638632 0.25193,1.034449 0.28317,1.005425 0.41369,1.678423 0.4023,2.074333 -0.0173,0.601142 1.06661,5.104926 1.1871,4.932561 0.0472,-0.06748 0.0546,-0.03601 0.0203,0.08584 -0.0721,0.25604 0.0237,0.665141 0.19626,0.837658 0.0802,0.08022 0.13932,0.275218 0.13932,0.459664 0,0.176191 0.0173,0.303064 0.0384,0.281957 0.0586,-0.05856 0.21902,0.476436 0.54787,1.826649 0.55695,2.286796 0.72992,3.045206 0.7287,3.194982 -8.5e-4,0.08214 0.0738,0.397002 0.16562,0.699685 0.18947,0.624942 1.01025,3.952553 1.2739,5.164667 0.0962,0.442383 0.28634,1.261533 0.42247,1.820333 0.13611,0.5588 0.34513,1.4732 0.46446,2.032 0.11933,0.5588 0.25145,1.1303 0.29359,1.27 0.0421,0.1397 0.10135,0.38735 0.13157,0.550334 0.0302,0.162983 0.20092,0.905933 0.37933,1.651 0.6307,2.633819 0.70218,2.991417 0.6461,3.232344 -0.0346,0.148802 -0.0275,0.196876 0.019,0.127398 0.0817,-0.122225 0.14417,0.07539 0.43643,1.381591 0.0938,0.4191 0.24449,1.04775 0.33492,1.397 0.24458,0.944507 0.68336,2.82426 0.68188,2.921135 -8.5e-4,0.04649 -0.0382,0.02738 -0.0834,-0.04247 -0.0668,-0.10337 -0.0823,-0.09268 -0.0834,0.05745 -8.5e-4,0.101448 0.0595,0.245204 0.1337,0.319448 0.16618,0.166175 0.63243,1.997061 0.56968,2.237021 -0.0269,0.10281 0.0137,0.23325 0.0993,0.31878 0.10274,0.10274 0.13142,0.22707 0.0988,0.42826 -0.0261,0.16096 -0.0127,0.26288 0.0312,0.2358 0.0424,-0.0262 0.0977,0.0396 0.12283,0.14627 0.0251,0.10668 0.16227,0.67022 0.30479,1.2523 0.14251,0.58208 0.23899,1.15979 0.21441,1.28378 -0.0287,0.14489 0.002,0.26422 0.086,0.33393 0.0841,0.0698 0.11467,0.18871 0.0857,0.3337 -0.0248,0.12388 -0.007,0.26367 0.0404,0.31065 0.047,0.047 0.0885,0.21445 0.0922,0.37217 0.004,0.15772 0.0574,0.36045 0.11937,0.4505 0.0635,0.0923 0.0901,0.25325 0.0611,0.36893 -0.0314,0.12512 -0.009,0.23128 0.0567,0.27207 0.0987,0.061 0.22872,0.56639 0.2831,1.10027 0.0119,0.11642 0.0517,0.28787 0.0885,0.381 0.20367,0.51513 0.23467,0.64507 0.18486,0.77488 -0.0302,0.0786 -0.009,0.17097 0.0461,0.20527 0.0555,0.0343 0.10551,0.18974 0.11116,0.34543 0.006,0.1557 0.045,0.33879 0.0874,0.40688 0.0424,0.0681 0.0686,0.25049 0.0582,0.40535 -0.0113,0.16762 0.0361,0.33663 0.11716,0.41768 0.10817,0.10817 0.11363,0.15003 0.0265,0.20386 -0.0861,0.0532 -0.089,0.12774 -0.0134,0.34753 0.0529,0.15388 0.16309,0.59868 0.24479,0.98845 0.0976,0.46565 0.20853,0.76453 0.32348,0.87162 0.13895,0.12946 0.15152,0.17741 0.0612,0.23327 -0.12738,0.0787 -0.065,0.38777 0.12139,0.60097 0.0618,0.0707 0.10845,0.2612 0.1037,0.42333 -0.0109,0.37277 0.17431,1.28356 0.28381,1.39548 0.0543,0.0555 0.0643,0.0264 0.0291,-0.0847 -0.0511,-0.16091 -0.0487,-0.16146 0.0472,-0.0111 0.0771,0.12093 0.0775,0.17274 0.001,0.21969 -0.10523,0.065 -0.0379,0.51106 0.0772,0.51106 0.0351,0 0.0467,0.0892 0.0258,0.19831 -0.0216,0.11293 0.0198,0.25601 0.0962,0.33237 0.0737,0.0737 0.11233,0.19072 0.0858,0.25995 -0.0266,0.0692 0.0352,0.5007 0.13735,0.95879 0.10212,0.4581 0.21472,0.96626 0.25025,1.12925 0.0963,0.44201 0.48903,2.12784 0.71984,3.09033 0.27438,1.14417 0.62136,2.62534 0.72394,3.09033 0.0462,0.20955 0.19271,0.8382 0.32552,1.397 0.1328,0.5588 0.34597,1.4732 0.47371,2.032 0.12774,0.5588 0.33918,1.4732 0.46986,2.032 0.13069,0.5588 0.29982,1.3208 0.37585,1.69334 0.076,0.37253 0.30418,1.38218 0.50701,2.24366 0.20283,0.86149 0.40562,1.73779 0.45063,1.94734 l 0.0818,0.381 0.0128,-0.33867 c 0.0183,-0.48593 0.13639,-0.22897 0.26546,0.57754 0.20158,1.2596 -0.12944,3.75252 -0.581,4.37546 -0.0844,0.11642 -0.23689,0.386 -0.33889,0.59907 -0.51369,1.07304 -1.70123,1.93327 -3.27171,2.36996 -1.6439,0.45712 -4.82272,0.59208 -21.7626,0.92402 -2.32834,0.0456 -4.95724,0.10229 -5.842,0.12592 -1.75134,0.0468 -4.17249,0.10367 -7.40833,0.17403 -7.44097,0.1618 -13.28234,0.29608 -14.52034,0.33379 -0.79163,0.0241 -2.23943,0.0636 -3.21733,0.0878 -0.9779,0.0242 -2.4638,0.0628 -3.302,0.0859 -2.19982,0.0605 -7.64413,0.19515 -11.85333,0.29307 -4.01287,0.0934 -6.59641,0.15553 -8.84767,0.21293 -0.81492,0.0208 -2.54847,0.0594 -3.85233,0.0859 -1.98393,0.0402 -7.82808,0.17357 -18.415,0.42017 -2.1348,0.0497 -4.23062,0.0942 -10.033,0.21276 -2.18864,0.0447 -4.62704,0.10122 -5.41867,0.12552 -0.79163,0.0243 -2.44898,0.0635 -3.683,0.0872 -1.23402,0.0237 -2.83422,0.0617 -3.556,0.0844 -0.72178,0.0228 -2.18863,0.0609 -3.25967,0.0847 -1.07103,0.0238 -2.76648,0.0623 -3.76766,0.0855 -1.00119,0.0232 -2.88714,0.062 -4.191,0.0862 -3.15274,0.0586 -9.13973,0.19704 -23.622,0.54621 -1.90924,0.046 -4.53814,0.10354 -5.842,0.12781 -1.30387,0.0243 -3.03742,0.0639 -3.85234,0.0881 -0.81491,0.0242 -3.04376,0.0813 -4.953,0.1269 -1.90923,0.0456 -5.01438,0.12061 -6.90033,0.16671 -1.88595,0.0461 -5.0292,0.12272 -6.985,0.17031 -1.9558,0.0476 -4.9276,0.12346 -6.604,0.16861 -1.6764,0.0451 -3.90525,0.10243 -4.953,0.12728 -1.04775,0.0249 -2.41935,0.0638 -3.048,0.0866 -1.74408,0.0632 -9.28891,0.27829 -14.77433,0.42119 -2.70087,0.0704 -5.99652,0.16482 -7.32367,0.20989 -1.32715,0.0451 -3.84175,0.12174 -5.588,0.17035 -1.74625,0.0486 -4.22275,0.12566 -5.50333,0.17122 -1.28058,0.0456 -2.93793,0.10377 -3.683,0.12938 -0.745066,0.0256 -1.507066,0.0583 -1.693333,0.0727 -0.186267,0.0144 -1.519766,0 -2.963333,-0.0328 z m -5.221114,-2.44557 c -0.0155,-0.0409 -0.33302,-0.30344 -0.70555,-0.58353 -1.83055,-1.37631 -3.07054,-3.09799 -3.6356,-5.0479 -0.25614,-0.88389 -0.27688,-1.11933 -1.74224,-19.77896 -0.0932,-1.18745 -0.22631,-2.82575 -0.29568,-3.64067 -0.0694,-0.81492 -0.2792,-3.46287 -0.46629,-5.88433 -0.72458,-9.37835 -0.8548,-11.06002 -1.18337,-15.282338 -0.61735,-7.933402 -0.67266,-8.651816 -0.9321,-12.107333 -0.1416,-1.88595 -0.33241,-4.400551 -0.42402,-5.588001 -0.17744,-2.300071 -0.6963,-9.314586 -1.01455,-13.716 -0.0455,-0.62865 -0.23488,-3.1242 -0.42095,-5.545666 -0.18606,-2.421467 -0.39501,-5.164667 -0.46432,-6.096001 -0.4045,-5.434516 -0.50993,-6.631576 -0.58027,-6.588108 -0.0425,0.02624 -0.0542,0.191296 -0.0262,0.366793 0.0753,0.470747 0.31601,4.041217 0.34623,5.135186 0.0144,0.520226 0.0454,0.977426 0.069,1.016 0.0362,0.05931 0.0712,0.479899 0.18512,2.22913 0.008,0.116416 0.0386,0.497416 0.0688,0.846666 0.0303,0.34925 0.0753,1.07315 0.1,1.608667 0.076,1.645708 0.22128,3.902143 0.297,4.612885 0.0396,0.371738 0.0564,0.701134 0.0373,0.731995 -0.0191,0.03085 0.0415,0.811013 0.13462,1.733677 0.0931,0.922672 0.1863,2.098226 0.20708,2.612347 0.0208,0.514122 0.0764,1.315763 0.12351,1.781429 0.12497,1.234423 0.17968,1.989938 0.22685,3.132667 0.0231,0.5588 0.0975,1.56845 0.16546,2.243667 0.0679,0.675216 0.14341,1.646766 0.16773,2.159 0.0243,0.512233 0.063,1.140883 0.0861,1.397 0.0527,0.586088 0.10747,1.422468 0.1609,2.455333 0.0229,0.442383 0.0792,1.109133 0.12514,1.481667 0.0459,0.372533 0.10965,1.248833 0.14158,1.947333 0.0319,0.6985 0.0751,1.44145 0.096,1.651 0.0209,0.20955 0.046,0.55328 0.0558,0.763846 0.01,0.210566 0.0419,0.421699 0.0712,0.46918 0.0556,0.09003 0.22234,2.010512 0.28248,3.254308 0.0191,0.395816 0.0496,0.833966 0.0676,0.973666 0.018,0.1397 0.0596,0.69215 0.0924,1.227667 0.0328,0.535517 0.0964,1.316567 0.14135,1.735667 0.0449,0.4191 0.10096,1.27635 0.1245,1.905 0.0235,0.62865 0.0814,1.341691 0.12853,1.584531 0.0472,0.24285 0.082,0.66195 0.0774,0.93134 -0.008,0.49078 0.048,1.35754 0.10874,1.67513 0.0947,0.4951 0.14402,1.0382 0.18309,2.0181 0.0238,0.59772 0.0604,1.11433 0.0812,1.14802 0.0514,0.0832 0.13335,1.11452 0.18237,2.29488 0.0222,0.53551 0.0768,1.25942 0.12129,1.60866 0.0445,0.34926 0.0987,0.95886 0.12059,1.35467 0.0741,1.34177 0.13748,2.157 0.22066,2.83634 0.0456,0.37253 0.0989,1.03928 0.11833,1.48166 0.0195,0.44239 0.075,1.20439 0.12351,1.69334 0.0485,0.48895 0.11149,1.21285 0.14005,1.60866 0.092,1.27477 0.10275,1.39223 0.15536,1.69334 0.0285,0.16298 0.10873,1.22978 0.17834,2.37066 0.0696,1.14089 0.16992,2.49344 0.22291,3.00567 0.053,0.51223 0.0947,0.98848 0.0926,1.05833 -0.002,0.0699 0.0323,0.4699 0.0764,0.889 0.0441,0.4191 0.0969,1.0287 0.11731,1.35467 0.0204,0.32597 0.0571,0.82127 0.0815,1.10067 0.0244,0.2794 0.0619,0.86995 0.0834,1.31233 0.0215,0.44238 0.0619,0.99483 0.0897,1.22767 0.0279,0.23283 0.0618,0.57573 0.0754,0.762 0.0136,0.18626 0.0855,1.02446 0.1597,1.86266 0.0742,0.8382 0.19446,2.286 0.26716,3.21734 0.26036,3.33485 0.30825,3.81856 0.44007,4.445 0.40264,1.91355 1.59947,3.84318 3.03478,4.89291 0.23283,0.17028 0.47007,0.37294 0.52719,0.45034 0.0571,0.0774 0.20651,0.1665 0.33198,0.19798 0.12548,0.0315 0.32201,0.1311 0.43673,0.22135 0.21825,0.17167 0.3892,0.21669 0.34099,0.0898 z m -8.66743,-45.05114 c -0.0343,-0.39687 -0.0805,-0.67064 -0.10259,-0.60837 -0.0221,0.0623 -0.009,0.48136 0.028,0.93133 0.0375,0.44996 0.0837,0.72373 0.10259,0.60837 0.0189,-0.11536 0.006,-0.53446 -0.028,-0.93133 z m -0.14954,-1.92809 c -0.17402,-2.37501 -0.31292,-3.57653 -0.31292,-2.706884 0,0.326614 0.13869,2.181344 0.21823,2.918554 0.0744,0.6895 0.14857,0.5237 0.0947,-0.21167 z m -0.42441,-4.947706 c -0.027,-0.06754 -0.0471,-0.04748 -0.0512,0.05115 -0.004,0.08925 0.0163,0.13926 0.0445,0.111125 0.0281,-0.02813 0.0311,-0.101159 0.007,-0.16228 z m -0.25317,-3.77135 c -0.0215,-0.08237 -0.0404,-0.03548 -0.0422,0.104225 -0.002,0.1397 0.0158,0.207103 0.039,0.149775 0.0232,-0.05732 0.0246,-0.171619 0.003,-0.254 z m -0.2566,-3.345942 c -0.0235,-0.05821 -0.0427,-0.01058 -0.0427,0.105833 0,0.116417 0.0192,0.164042 0.0427,0.105834 0.0235,-0.05821 0.0235,-0.153459 0,-0.211667 z m -0.0824,-1.312333 c -0.0213,-0.08149 -0.0387,-0.01482 -0.0387,0.148166 0,0.162984 0.0174,0.229659 0.0387,0.148167 0.0213,-0.08149 0.0213,-0.214842 0,-0.296333 z m -0.25452,-3.085042 c -0.027,-0.06754 -0.0471,-0.04748 -0.0512,0.05116 -0.004,0.08925 0.0163,0.13926 0.0445,0.111125 0.0281,-0.02813 0.0311,-0.101159 0.007,-0.16228 z m 5e-4,-0.555625 c -0.0213,-0.08149 -0.0387,-0.01482 -0.0387,0.148167 0,0.162983 0.0174,0.229658 0.0387,0.148166 0.0213,-0.08149 0.0213,-0.214841 0,-0.296333 z m -0.17162,-2.074334 c -0.0235,-0.05821 -0.0427,-0.01058 -0.0427,0.105834 0,0.116416 0.0192,0.164041 0.0427,0.105833 0.0235,-0.05821 0.0235,-0.153458 0,-0.211667 z m -0.254,-3.725333 c -0.0235,-0.05821 -0.0427,-0.01058 -0.0427,0.105833 0,0.116417 0.0192,0.164042 0.0427,0.105834 0.0235,-0.05821 0.0235,-0.153459 0,-0.211667 z m -0.16757,-1.942042 c -0.027,-0.06754 -0.0471,-0.04748 -0.0511,0.05116 -0.004,0.08925 0.0163,0.13926 0.0445,0.111125 0.0281,-0.02813 0.0311,-0.10116 0.007,-0.162281 z m -0.50447,-6.946442 c -0.0188,-0.152172 -0.0346,-0.04808 -0.0351,0.231317 -5.1e-4,0.2794 0.0149,0.403911 0.0343,0.276683 0.0193,-0.127221 0.0197,-0.355821 8.6e-4,-0.508 z m -0.16994,-2.159356 c -0.0195,-0.128693 -0.0359,-0.04349 -0.0365,0.18934 -6.8e-4,0.232833 0.0153,0.338133 0.0354,0.233993 0.0201,-0.104131 0.0206,-0.294631 10e-4,-0.423333 z m -0.17173,-2.371827 c -0.0213,-0.08149 -0.0387,-0.01482 -0.0387,0.148167 0,0.162983 0.0174,0.229658 0.0387,0.148167 0.0213,-0.08149 0.0213,-0.214842 0,-0.296334 z m 239.88699,0.187782 c 0,-0.217957 -0.22039,-0.665496 -0.41165,-0.835905 -0.22832,-0.203429 -0.22641,-0.183591 0.031,0.323808 0.11622,0.229082 0.21131,0.467207 0.21131,0.529166 0,0.06196 0.0381,0.112649 0.0847,0.112649 0.0466,0 0.0847,-0.05838 0.0847,-0.129718 z m -239.97216,-1.664157 c -0.027,-0.06754 -0.0471,-0.04748 -0.0512,0.05116 -0.004,0.08925 0.0163,0.13926 0.0445,0.111125 0.0281,-0.02813 0.0311,-0.10116 0.007,-0.162281 z m -0.14343,-1.740238 c -0.0758,-0.119008 -0.0854,-0.08093 -0.0479,0.18978 0.0258,0.186267 0.0542,0.433917 0.0631,0.550333 0.009,0.116417 0.0305,0.03101 0.0479,-0.18978 0.0174,-0.220794 -0.011,-0.468444 -0.0631,-0.550333 z m -3.4e-4,-0.551053 c -8.7e-4,-0.18708 -0.0246,-0.238286 -0.0743,-0.159961 -0.0666,0.105071 -0.0339,0.435127 0.0431,0.435127 0.0178,0 0.0319,-0.123825 0.0312,-0.275166 z m -0.15851,-1.527175 c -0.0691,-0.06915 -0.0942,-0.05967 -0.0942,0.03563 0,0.168309 0.11385,0.28216 0.15593,0.155931 0.0178,-0.05355 -0.01,-0.139751 -0.0617,-0.191558 z m -0.0344,-1.012825 c -0.0202,-0.104775 -0.0367,-0.01905 -0.0367,0.1905 0,0.20955 0.0165,0.295275 0.0367,0.1905 0.0202,-0.104775 0.0202,-0.276225 0,-0.381 z m -0.25539,-3.429001 c -0.0213,-0.08149 -0.0387,-0.01482 -0.0387,0.148167 0,0.162983 0.0174,0.229658 0.0387,0.148167 0.0213,-0.08149 0.0213,-0.214842 0,-0.296334 z m -0.16986,-2.492375 c -0.027,-0.06754 -0.0471,-0.04748 -0.0511,0.05116 -0.004,0.08925 0.0163,0.13926 0.0445,0.111125 0.0281,-0.02813 0.0311,-0.10116 0.007,-0.162281 z m 0.50148,-5.762625 c -0.11324,-1.956291 -0.15989,-2.434166 -0.23766,-2.434166 -0.046,0 -0.0593,0.188281 -0.0314,0.4445 0.0266,0.244475 0.0675,0.7874 0.0908,1.2065 0.0547,0.983234 0.1375,1.735666 0.19109,1.735666 0.0233,0 0.0175,-0.428625 -0.0129,-0.9525 z m -0.26259,-3.937 c -0.0327,-0.523875 -0.0871,-0.9525 -0.12093,-0.9525 -0.0899,0 -0.0822,0.520379 0.0219,1.481667 0.11544,1.066123 0.17779,0.732968 0.099,-0.529167 z m -0.21717,-2.821008 c -0.0735,-1.013384 -0.13518,-1.47221 -0.18116,-1.347911 -0.0397,0.107425 -0.0254,0.494902 0.0333,0.901167 0.079,0.5466 0.08,0.773836 0.004,0.974928 -0.0801,0.212251 -0.0754,0.295919 0.0249,0.439107 0.0682,0.09729 0.1239,0.289069 0.1239,0.42617 0,0.1371 0.0239,0.22534 0.0532,0.196088 0.0293,-0.02925 0.003,-0.744551 -0.0583,-1.589549 z m -0.32939,-4.660071 c -0.15231,-2.178888 -0.45063,-6.651963 -0.89157,-13.368092 -0.34793,-5.29961 -0.46692,-6.7631 -0.55422,-6.81706 -0.0645,-0.0399 -0.0547,0.22311 0.0872,2.32973 0.0455,0.67522 0.12361,1.85632 0.17364,2.62467 0.05,0.76835 0.14566,2.14179 0.21252,3.05207 0.23101,3.1454 0.27999,3.84876 0.2768,3.97526 -0.002,0.0699 0.0366,0.565151 0.0853,1.100668 0.0487,0.535517 0.13127,1.735667 0.18353,2.667 0.0523,0.931333 0.16984,2.626783 0.26127,3.767667 0.0914,1.140883 0.17978,2.341033 0.19631,2.667 0.0165,0.325966 0.0409,0.706966 0.0541,0.846666 0.0227,0.239328 0.0259,0.236347 0.0566,-0.05158 0.0179,-0.168063 -0.0458,-1.425363 -0.14144,-2.794 z m -1.46641,-21.134362 c -0.0183,-0.17567 -0.0336,-0.0527 -0.034,0.27327 -3.3e-4,0.32597 0.0146,0.4697 0.0333,0.31939 0.0187,-0.1503 0.019,-0.417 6.8e-4,-0.59266 z m -0.0922,-1.44123 c -0.10883,-2.07547 -0.21587,-3.8024 -0.34245,-5.5245 -0.0702,-0.95461 -0.20664,-2.97391 -0.30329,-4.48733 -0.0967,-1.51342 -0.20695,-3.05647 -0.24511,-3.429 l -0.0694,-0.67733 -0.0127,0.52794 c -0.007,0.29036 0.0416,1.33811 0.10789,2.32833 0.12393,1.85087 0.29503,4.80161 0.29587,5.10239 2.6e-4,0.0931 0.0386,0.58844 0.0853,1.10067 0.0466,0.51223 0.10069,1.19803 0.12012,1.524 0.0194,0.32597 0.0751,1.01177 0.12363,1.524 0.0486,0.51223 0.11411,1.41711 0.14564,2.01083 0.0315,0.59373 0.0784,1.0795 0.1042,1.0795 0.0258,0 0.0214,-0.48577 -0.01,-1.0795 z m -0.99615,-14.732 c -0.01,-0.53384 -0.0146,-0.54703 -0.0707,-0.20014 -0.0554,0.34206 -0.0282,0.77164 0.0489,0.77164 0.0178,0 0.0277,-0.25717 0.0219,-0.5715 z m -0.15732,-1.97257 c -0.0785,-0.18019 -0.0847,-0.16289 -0.0469,0.13107 0.024,0.18627 0.0513,0.51012 0.0608,0.71967 0.0144,0.31777 0.0222,0.29601 0.0469,-0.13107 0.0163,-0.28164 -0.0111,-0.60549 -0.0608,-0.71967 z m -0.0923,-1.21452 c -0.077,-0.0718 -0.0883,-0.0144 -0.0481,0.24493 0.0288,0.18626 0.0599,0.43391 0.069,0.55033 0.009,0.11642 0.0308,0.006 0.0481,-0.24492 0.0195,-0.28209 -0.007,-0.49242 -0.069,-0.55034 z m 11.2904,151.56543 c -0.12693,-0.16412 -0.20678,-0.3175 -0.16528,-0.3175 0.0207,0 0.1,0.0953 0.17627,0.21167 0.14275,0.21783 0.13479,0.29432 -0.011,0.10583 z m 224.82995,0.0498 c 0.0582,-0.0235 0.15346,-0.0235 0.21166,0 0.0582,0.0235 0.0106,0.0427 -0.10583,0.0427 -0.11642,0 -0.16404,-0.0192 -0.10583,-0.0427 z m 5.334,-0.17451 c 0.15134,-0.0188 0.39899,-0.0188 0.55033,0 0.15134,0.0188 0.0275,0.0341 -0.27517,0.0341 -0.30268,0 -0.4265,-0.0154 -0.27516,-0.0341 z m 1.18685,0 c 0.15218,-0.0189 0.38078,-0.0185 0.508,8.5e-4 0.12722,0.0193 0.003,0.0347 -0.27669,0.0343 -0.2794,-8.5e-4 -0.38349,-0.0163 -0.23131,-0.0351 z m 1.20498,-0.0224 c 0,-0.0546 0.54323,-0.0857 1.49578,-0.0857 0.82267,0 1.4799,0.0138 1.4605,0.0306 -0.0931,0.0807 -2.95628,0.13409 -2.95628,0.0551 z m 3.59833,-0.0896 c 0.23284,-0.0363 0.67099,-0.0635 0.97367,-0.0604 l 0.55033,0.006 -0.55033,0.0619 c -0.30268,0.034 -0.74083,0.0612 -0.97367,0.0604 l -0.42333,-0.001 0.42333,-0.0659 z m 2.09859,-0.0588 c 0.26946,-0.0169 0.68856,-0.0167 0.93134,0 0.24277,0.017 0.0223,0.0308 -0.48993,0.0306 -0.51223,0 -0.71087,-0.0141 -0.44141,-0.031 z m 4.03975,-0.0279 c -0.34925,-0.0265 -0.61595,-0.0569 -0.59267,-0.0674 0.15455,-0.07 4.65077,-0.0987 4.826,-0.0308 0.18025,0.0698 0.12369,0.0909 -0.381,0.14182 -0.62239,0.0628 -2.77165,0.0385 -3.85233,-0.0436 z"
         id="path1201"
         inkscape:connector-curvature="0" />
      <path
         sodipodi:nodetypes="cscccccsccscscccccccccccccsscccccscccsccccsscccscccccccccsccsccccccscscsccscscccsccccccccccccscccsccccccccccscccccccccccsssccccccssccccccssccscccsccsccccccscccccccccccccccsccccccscsscccccsscscscsscsscscccssscscccccccccccccccssccccccsssccsccsscsccccccccccscsccscccccccscsccsccccccccccccccccccccsccsccccccscccccsssccsssccccsscccccccsccsccccsssccccccccccccccsccsscsssssssscccccccccccccccsccsssscscccccccccccscscsssccsccssccccsscssccccccccccccccccccccccccccccccscscsccsccccccccsccccccccsccscccccccccccsccccccsccccccccsccccccccssccsssssscccccsccccscccccccscccccccscsccccccccccccscccccccccccccccccccc"
         style="fill:#121315;stroke-width:0.08466667;"
         d="m -97.766826,151.36064 c -1.025381,-0.14169 -2.518884,-0.66688 -3.429004,-1.20579 -1.15272,-0.68256 -2.60705,-1.99286 -2.50554,-2.25739 0.0272,-0.0708 0.0117,-0.10323 -0.0353,-0.0742 -0.12635,0.0781 -0.51265,-0.39953 -0.47023,-0.58137 0.0236,-0.10132 -0.0183,-0.17194 -0.11768,-0.19791 -0.0849,-0.0222 -0.2563,-0.22755 -0.3808,-0.45631 -0.21396,-0.39311 -0.21725,-0.41592 -0.06,-0.41592 0.10936,0 0.275,0.16683 0.48332,0.48683 0.40034,0.61494 0.4416,0.66319 1.37563,1.60867 0.42553,0.43074 0.82544,0.78317 0.8887,0.78317 0.0632,0 0.2045,0.0953 0.31386,0.21166 0.10937,0.11642 0.22601,0.21167 0.2592,0.21167 0.0332,0 0.39803,0.18042 0.81074,0.40095 0.95048,0.50786 1.619948,0.78349 1.904224,0.78399 0.122369,0 0.350969,0.0534 0.508,0.11814 0.393269,0.16219 1.958391,0.33646 3.077862,0.34272 0.815484,0.005 0.933256,0.0234 0.958706,0.15337 0.02692,0.13743 -0.09247,0.14725 -1.649357,0.13548 -0.923104,-0.007 -1.792673,-0.0285 -1.932373,-0.0478 z m 3.937,-0.0913 c 0,-0.14164 0.08427,-0.1694 0.656167,-0.21617 0.629209,-0.0515 1.79865,-0.008 2.042727,0.0767 0.06412,0.0221 0.159368,0.005 0.211667,-0.0378 0.09145,-0.0751 1.712785,-0.14095 5.683105,-0.23087 1.02447,-0.0232 2.16747,-0.0544 2.54,-0.0693 0.37253,-0.0149 1.45838,-0.0359 2.413,-0.0466 0.95462,-0.0107 2.37763,-0.0528 3.16224,-0.0936 0.97288,-0.0506 1.47948,-0.0458 1.59291,0.0149 0.11662,0.0624 0.19873,0.0621 0.27469,-9.3e-4 0.0683,-0.0567 1.01268,-0.10481 2.55575,-0.13021 4.01418,-0.0661 7.663,-0.14379 8.20474,-0.17472 0.2794,-0.0159 1.25095,-0.0498 2.159,-0.0752 0.90805,-0.0254 2.2987,-0.0653 3.09034,-0.0888 1.42338,-0.0421 3.23901,-0.0879 6.858,-0.17317 1.02446,-0.0241 2.31986,-0.0632 2.87866,-0.0868 2.20632,-0.0932 5.29167,-0.11981 5.29167,-0.0457 0,0.0423 0.0211,0.13181 0.0469,0.19897 0.0642,0.16736 -0.40424,0.23668 -0.93251,0.13799 -0.24169,-0.0452 -0.44797,-0.0454 -0.50289,-8.4e-4 -0.0512,0.0417 -0.75988,0.0984 -1.57479,0.12584 -0.81492,0.0275 -2.03412,0.0692 -2.70934,0.0927 -0.67521,0.0235 -2.23731,0.0629 -3.47133,0.0875 -1.23402,0.0246 -2.79022,0.0674 -3.45822,0.0952 -0.90153,0.0374 -1.26627,0.0227 -1.41528,-0.057 -0.14355,-0.0768 -0.23173,-0.0817 -0.30958,-0.0171 -0.10334,0.0858 -0.6117,0.10393 -6.50092,0.23225 -3.83664,0.0836 -5.91036,0.13037 -11.176,0.25209 -2.95698,0.0683 -7.31943,0.1632 -9.69433,0.21079 -2.3749,0.0476 -5.127628,0.10802 -6.117169,0.1343 -1.734143,0.0461 -1.799167,0.0419 -1.799167,-0.11471 z m -3.307672,-0.81513 c -2.141754,-0.45194 -3.812762,-1.3369 -5.263232,-2.78736 -1.04909,-1.0491 -1.81631,-2.33969 -2.22096,-3.73606 -0.21718,-0.74945 -0.30198,-1.59196 -0.80565,-8.00364 -0.0933,-1.18745 -0.26449,-3.3401 -0.38048,-4.78366 -0.11599,-1.44357 -0.32584,-4.09152 -0.46632,-5.88434 -0.14049,-1.79281 -0.29362,-3.71686 -0.34028,-4.27566 -0.16511,-1.97705 -0.34088,-4.19949 -0.67634,-8.55134 -0.18666,-2.42147 -0.37743,-4.85987 -0.42394,-5.41867 -0.10831,-1.30135 -1.17502,-15.202166 -1.5658,-20.404661 -0.1644,-2.188634 -0.35572,-4.684184 -0.42516,-5.545667 -0.15203,-1.88617 -0.54992,-7.222973 -0.84586,-11.345334 -0.11867,-1.653116 -0.32811,-4.472516 -0.46542,-6.265333 -0.23619,-3.083916 -0.78648,-10.630899 -1.05875,-14.520334 -0.0685,-0.9779 -0.16288,-2.3114 -0.20983,-2.963333 -0.27621,-3.835417 -0.4531,-6.323855 -0.6771,-9.525 -0.13848,-1.979083 -0.29047,-4.150783 -0.33775,-4.826 -0.13079,-1.867832 -0.40856,-6.062018 -0.55512,-8.381998 -0.0721,-1.14089 -0.22467,-3.36974 -0.33911,-4.953 -0.11444,-1.58327 -0.24585,-3.48827 -0.29202,-4.23334 -0.0462,-0.74506 -0.12138,-1.86901 -0.16713,-2.49766 -0.0457,-0.62865 -0.35192,-5.15256 -0.68041,-10.05313 -0.63308,-9.44468 -0.63141,-9.38409 -0.28736,-10.41849 0.52577,-1.58078 2.0017,-3.01252 3.80003,-3.68625 1.17619,-0.44065 1.7117,-0.51448 3.64066,-0.50193 1.54679,0.0101 7.05563,0.17628 10.541004,0.31806 0.62865,0.0256 2.41935,0.0831 3.979333,0.12778 1.559984,0.0447 3.484034,0.101 4.275663,0.1251 0.79164,0.0241 2.71569,0.0823 4.27567,0.12925 2.66234,0.0802 4.13665,0.12862 10.26583,0.33723 1.36208,0.0464 3.7719,0.12286 5.35517,0.17001 1.58327,0.0472 3.88832,0.1232 5.12233,0.16902 1.23402,0.0458 3.38667,0.12204 4.78367,0.1694 1.397,0.0474 3.01625,0.10425 3.59833,0.12643 4.42782,0.16868 10.24042,0.3715 12.23434,0.4269 0.9779,0.0272 3.2258,0.10495 4.99533,0.17283 1.76953,0.0679 5.27473,0.19837 7.78933,0.28996 5.80174,0.21133 8.82213,0.32675 9.94834,0.38017 0.48895,0.0232 1.93675,0.0808 3.21733,0.12791 2.96945,0.10934 6.22527,0.24056 7.366,0.29687 0.48895,0.0241 2.27965,0.10066 3.97933,0.17006 3.64873,0.14898 6.24232,0.2667 8.33967,0.37853 0.8382,0.0447 2.60985,0.12113 3.937,0.16987 1.32715,0.0487 3.2512,0.12614 4.27567,0.172 1.02446,0.0458 3.21521,0.14065 4.86833,0.21065 1.65312,0.07 4.26297,0.18366 5.79967,0.25258 1.5367,0.0689 3.7084,0.16492 4.826,0.21333 4.1959,0.18178 20.3482,0.94507 23.241,1.09828 0.90805,0.0481 2.88925,0.1447 4.40266,0.21469 1.51342,0.07 3.41842,0.16497 4.23333,0.21108 0.81492,0.0461 2.26272,0.12239 3.21734,0.16951 0.95461,0.0471 2.40241,0.12287 3.21733,0.16833 2.44279,0.13626 7.82441,0.41202 10.668,0.54663 1.46685,0.0694 2.91465,0.14657 3.21733,0.17141 0.30269,0.0248 1.35044,0.0834 2.32834,0.13015 0.9779,0.0467 2.44475,0.12189 3.25966,0.16699 0.81492,0.0451 2.22462,0.12036 3.13267,0.16725 2.07916,0.10737 7.21901,0.39548 9.05933,0.50783 0.76835,0.0469 2.8067,0.16137 4.52967,0.25438 6.81786,0.36802 9.25721,0.51647 9.90508,0.60281 2.74335,0.36557 5.21229,2.13054 6.75818,4.83123 0.36497,0.63759 0.68557,1.71568 1.49612,5.03098 0.42033,1.71928 1.08624,4.44042 1.47979,6.04697 0.39356,1.60655 0.94624,3.8735 1.22818,5.03767 0.28195,1.16417 0.75831,3.12632 1.05859,4.36033 0.30028,1.23402 0.75916,3.11997 1.01973,4.191 0.82751,3.4014 1.62745,6.720718 2.03022,8.424338 0.21468,0.90805 0.58054,2.43205 0.81302,3.386667 0.23248,0.954616 0.76638,3.183466 1.18646,4.953 0.42008,1.769533 0.9314,3.903133 1.13628,4.741333 0.20488,0.8382 0.56672,2.34315 0.80409,3.344333 0.23736,1.001184 0.6345,2.658534 0.88252,3.683 0.53329,2.202731 1.36298,5.67028 1.78275,7.450667 0.71938,3.051065 2.3221,9.79822 3.04692,12.827 0.35104,1.46685 0.77035,3.21945 0.93181,3.894667 0.16145,0.675217 1.26515,5.323417 2.45267,10.329334 1.18753,5.005916 2.38698,10.054166 2.66546,11.218333 0.68034,2.844128 2.02706,8.560858 3.47048,14.731998 0.65351,2.794 1.41673,6.05155 1.69603,7.239 0.58412,2.48331 2.55943,10.98937 3.01807,12.99634 0.17026,0.74506 0.3656,1.56421 0.43411,1.82033 0.0685,0.25612 0.14409,1.00122 0.16799,1.65577 0.0374,1.02546 0.0187,1.28902 -0.13562,1.905 -0.57297,2.28732 -2.09755,3.67777 -4.45082,4.05927 -0.5759,0.0934 -5.35742,0.22792 -22.69544,0.6387 -6.88317,0.16308 -16.76994,0.43451 -27.686,0.7601 -6.34422,0.18923 -9.85408,0.28475 -13.88534,0.37787 -2.00236,0.0463 -5.01226,0.12202 -6.68866,0.16837 -1.6764,0.0463 -4.6101,0.1237 -6.51934,0.1719 -1.90923,0.0482 -4.57623,0.1247 -5.92666,0.16998 -1.35044,0.0453 -3.48404,0.10214 -4.74134,0.12631 -4.4652,0.0859 -13.05345,0.29064 -14.01233,0.3341 -0.53551,0.0243 -2.13571,0.0649 -3.556,0.0903 -1.42028,0.0254 -2.73473,0.0625 -2.921,0.0825 -0.18626,0.02 -1.71026,0.0573 -3.38666,0.0831 -1.6764,0.0257 -3.67665,0.0651 -4.445,0.0875 -0.76835,0.0224 -2.3495,0.0602 -3.51367,0.0841 -3.10138,0.0635 -7.02783,0.16032 -10.37167,0.25578 -0.90805,0.0259 -4.07035,0.10265 -7.02733,0.17049 -7.67827,0.17618 -11.86816,0.27866 -15.45167,0.37793 -1.72296,0.0477 -6.19971,0.16227 -9.94833,0.25453 -3.74862,0.0923 -8.20632,0.2064 -9.906,0.25362 -1.69968,0.0472 -4.61433,0.12432 -6.477,0.17132 -1.86267,0.047 -4.77732,0.12189 -6.477,0.16644 -1.69968,0.0445 -3.98568,0.1019 -5.08,0.12747 -2.18612,0.0511 -4.10494,0.10316 -6.30767,0.17121 -0.79163,0.0245 -2.92523,0.0815 -4.74133,0.12667 -1.8161,0.0452 -4.064,0.1021 -4.99533,0.12642 -2.95007,0.077 -8.50678,0.21009 -12.36134,0.29605 -2.04893,0.0457 -4.33493,0.10387 -5.08,0.12927 -2.22283,0.0758 -11.734347,0.29429 -14.647329,0.3365 -2.107294,0.0305 -2.832879,0.0132 -3.265339,-0.0781 z m 21.553338,-4.48984 c 5.40173,-0.11368 10.79288,-0.22858 11.98033,-0.25531 5.88438,-0.13245 10.33434,-0.2265 16.04434,-0.3391 3.44593,-0.068 7.06543,-0.14483 8.04333,-0.17084 0.9779,-0.026 3.6449,-0.0846 5.92667,-0.13021 2.28176,-0.0456 7.88246,-0.15892 12.446,-0.2518 26.83458,-0.54617 42.99745,-0.86274 49.784,-0.97507 3.76781,-0.0624 19.08708,-0.41384 22.14033,-0.50798 0.86148,-0.0266 7.66233,-0.19813 15.113,-0.38128 7.45066,-0.18316 14.99446,-0.372 16.764,-0.41966 1.76953,-0.0477 5.46523,-0.14372 8.21266,-0.21346 2.74744,-0.0697 6.44314,-0.16519 8.21267,-0.21212 4.55355,-0.12078 12.10904,-0.31662 17.94933,-0.46527 15.92646,-0.40536 18.44707,-0.47561 18.51237,-0.51597 0.0396,-0.0245 0.072,-0.11191 0.072,-0.19432 0,-0.41998 -0.85801,-4.44244 -2.10709,-9.87837 -0.51295,-2.23234 -1.4849,-6.47814 -2.15987,-9.43512 -0.67498,-2.95699 -1.83664,-8.04334 -2.58147,-11.30301 -0.74484,-3.25966 -2.00517,-8.78416 -2.80077,-12.276661 -0.79559,-3.4925 -1.69111,-7.4168 -1.99003,-8.720667 -0.29893,-1.303867 -0.79124,-3.456517 -1.09401,-4.783667 -0.30279,-1.32715 -1.69777,-7.4422 -3.09998,-13.589 -1.40221,-6.1468 -3.29262,-14.43355 -4.20092,-18.415 -2.51805,-11.037647 -3.61634,-15.852657 -6.29577,-27.601335 -1.35407,-5.93725 -2.59339,-11.3665 -2.75405,-12.065 -0.16066,-0.6985 -0.92035,-4.0292 -1.68821,-7.40156 -0.76785,-3.37236 -1.43618,-6.17165 -1.48516,-6.22063 -0.0543,-0.0543 -1.69805,-0.1628 -4.2147,-0.27814 C 96.87574,-1.1402 92.5046,-1.34106 89.4312,-1.48255 79.44266,-1.9424 29.31417,-4.22265 18.5652,-4.70611 15.44524,-4.84644 11.23519,-5.03636 9.20954,-5.12817 3.40472,-5.39125 -2.97679,-5.67569 -20.21213,-6.43957 -31.09544,-6.92193 -37.86225,-7.18275 -60.8098,-8.00439 c -5.19218,-0.18591 -11.02148,-0.39531 -12.954,-0.46533 -1.93251,-0.07 -5.91396,-0.20423 -8.84766,-0.29823 -2.9337,-0.094 -6.477,-0.20943 -7.874003,-0.25651 -1.397,-0.0471 -4.072356,-0.11008 -5.945242,-0.14002 -3.049439,-0.0487 -3.410576,-0.0405 -3.456288,0.0786 -0.06266,0.1633 0.268927,4.54574 1.446217,19.11367 1.977889,24.474625 3.296767,40.523454 5.291429,64.388998 1.698786,20.325606 2.027369,24.158711 2.79058,32.554332 0.416967,4.58682 0.892967,9.88272 1.057787,11.76867 0.16481,1.88595 0.43299,4.9149 0.59596,6.731 0.16297,1.8161 0.37277,4.1783 0.4662,5.24933 0.0934,1.07104 0.22485,2.55694 0.29205,3.302 0.0672,0.74507 0.18049,2.00237 0.25179,2.794 0.0713,0.79164 0.28388,3.18873 0.47242,5.32687 0.18853,2.13815 0.36243,3.91932 0.38644,3.95817 0.0602,0.0975 0.19899,0.0958 11.25199,-0.13682 z M 127.40542,67.867587 c 0.16226,-0.08622 0.38403,-0.28625 0.49284,-0.4445 0.16954,-0.246592 0.19339,-0.368757 0.16683,-0.854456 -0.0261,-0.476945 -0.0715,-0.617788 -0.28673,-0.889 -0.74823,-0.942857 -2.23519,-1.051171 -2.78966,-0.203209 -0.42365,0.647887 -0.37747,1.183903 0.15144,1.757706 0.67363,0.7308 1.59647,0.988864 2.26528,0.633459 z m -1.14432,-0.389408 c -0.32309,-0.147828 -0.889,-0.678332 -0.889,-0.833382 0,-0.142189 0.26748,-0.398441 0.41589,-0.398441 0.18259,0 0.0477,-0.204547 -0.16816,-0.255016 -0.28767,-0.06725 -0.32626,-0.442375 -0.0644,-0.625797 0.50363,-0.352755 1.263,0.06891 1.71648,0.953126 0.18628,0.363212 0.11273,1.07216 -0.12438,1.199058 -0.21524,0.115189 -0.58423,0.09872 -0.88644,-0.03955 z M -43.87649,150.16477 c 0,-0.25543 0.1189,-0.35231 0.43239,-0.35231 0.18128,0 0.32961,0.0381 0.32961,0.0847 0,0.11843 0.1847,0.10544 0.47383,-0.0333 0.2431,-0.11668 3.2278,-0.2381 8.88183,-0.36132 3.50089,-0.0763 3.76767,-0.0571 3.76767,0.27056 0,0.17312 -0.44817,0.20528 -3.556,0.25514 -3.27913,0.0526 -4.78527,0.0834 -8.0645,0.16482 -1.48745,0.0369 -2.26483,0.0272 -2.26483,-0.0282 z m 14.41612,-0.39016 c -0.17471,-0.0792 -0.32049,-0.28534 -0.25092,-0.35491 0.0164,-0.0164 1.10771,-0.0535 2.42509,-0.0824 1.91962,-0.0421 2.40878,-0.0306 2.46336,0.0577 0.0558,0.0902 0.0926,0.0899 0.20352,-0.002 0.15381,-0.12766 0.52406,-0.14997 3.64516,-0.21966 1.21073,-0.027 3.22785,-0.0833 4.48249,-0.1251 1.61906,-0.0539 2.31328,-0.0493 2.39183,0.0159 0.08,0.0664 0.14401,0.0642 0.23102,-0.008 0.0675,-0.056 0.35574,-0.096 0.65617,-0.091 0.2947,0.005 0.97397,-0.008 1.50949,-0.0291 3.75415,-0.14651 4.20536,-0.14811 4.31568,-0.0152 0.14105,0.16995 0.42565,0.16741 0.42565,-0.004 0,-0.11457 0.14171,-0.13246 0.99484,-0.12555 0.54715,0.004 1.13752,-0.0158 1.31192,-0.0449 0.1744,-0.0291 0.38395,-0.0233 0.46567,0.013 0.21854,0.097 0.89403,0.10549 1.01592,0.0127 0.0579,-0.0441 0.2025,-0.0616 0.32125,-0.0389 0.11875,0.0227 0.52854,0.009 0.91065,-0.0297 0.71368,-0.0729 2.45257,-0.1229 7.25642,-0.20866 1.51342,-0.027 3.03742,-0.0559 3.38667,-0.0642 l 0.635,-0.0151 -0.0173,0.24313 c -0.01,0.13371 -0.0413,0.26706 -0.0705,0.29633 -0.0292,0.0293 -0.48525,0.058 -1.01335,0.0637 -0.5281,0.006 -2.17277,0.0416 -3.65482,0.0796 -1.48204,0.038 -3.09468,0.0744 -3.58363,0.0808 -0.48895,0.006 -2.62255,0.0554 -4.74133,0.1087 -2.11879,0.0533 -4.97629,0.11777 -6.35,0.14315 -1.37372,0.0254 -2.74532,0.0639 -3.048,0.0855 -0.30269,0.0216 -1.99814,0.0627 -3.76767,0.0912 -1.76953,0.0285 -3.56023,0.0657 -3.97933,0.0827 -0.61946,0.0251 -3.61689,0.0864 -7.78934,0.15954 -0.32596,0.006 -0.67766,-0.0281 -0.78154,-0.0752 z m 39.00423,-0.85634 c -0.19092,-0.23006 0.006,-0.41438 0.47427,-0.44464 0.22566,-0.0146 0.48845,0.0105 0.58399,0.0558 0.36221,0.17163 0.49749,0.18375 0.63744,0.0571 0.1924,-0.17413 1.13288,-0.27569 2.66895,-0.28824 0.6985,-0.006 1.63322,-0.0336 2.07716,-0.062 0.68172,-0.0436 0.82478,-0.0304 0.92053,0.0849 0.13942,0.16799 0.39939,0.17768 0.4906,0.0183 0.0794,-0.13873 1.22934,-0.19784 5.10537,-0.2624 1.37372,-0.0229 3.20252,-0.0635 4.064,-0.0902 2.82938,-0.0878 4.86475,-0.13407 5.08,-0.11555 0.2716,0.0234 0.53236,0.0148 1.05834,-0.0348 0.55272,-0.0521 6.3042,-0.20363 13.63133,-0.35917 0.8382,-0.0178 2.15265,-0.0509 2.921,-0.0735 4.70261,-0.13866 11.37915,-0.30496 11.811,-0.29419 0.50801,0.0127 3.07841,-0.0663 4.27566,-0.13132 0.34925,-0.019 1.6256,-0.0568 2.83634,-0.0841 2.62987,-0.0593 4.12015,-0.11894 4.54828,-0.18203 0.17323,-0.0255 0.56376,-0.0198 0.86784,0.0128 0.47066,0.0504 0.55288,0.0837 0.55288,0.22367 0,0.0905 0.0387,0.14054 0.086,0.11129 0.0473,-0.0292 0.0653,-0.0867 0.04,-0.12775 -0.10629,-0.17198 0.3359,-0.23473 1.69432,-0.24047 0.79163,-0.003 1.66793,-0.0266 1.94733,-0.0518 0.2794,-0.0251 1.4605,-0.0632 2.62467,-0.0847 1.16417,-0.0214 3.46922,-0.0777 5.12233,-0.12508 1.65312,-0.0473 4.49157,-0.12643 6.30767,-0.17573 1.8161,-0.0493 3.7211,-0.1062 4.23333,-0.12645 0.51224,-0.0202 2.34104,-0.0747 4.064,-0.12094 1.72297,-0.0463 3.66607,-0.10514 4.318,-0.13081 0.65194,-0.0257 2.65219,-0.0836 4.445,-0.12877 1.79282,-0.0452 3.75497,-0.10128 4.36034,-0.12472 0.60536,-0.0234 2.22461,-0.0622 3.59833,-0.0861 1.37372,-0.0239 2.97392,-0.062 3.556,-0.0846 0.58208,-0.0226 1.87748,-0.0617 2.87867,-0.0869 1.00118,-0.0252 3.83963,-0.1007 6.30766,-0.16772 2.46804,-0.067 6.75429,-0.17929 9.525,-0.24946 2.77072,-0.0702 5.24722,-0.14882 5.50334,-0.17477 1.79017,-0.18138 3.40752,-1.18038 4.41536,-2.72727 0.19022,-0.29196 0.35948,-0.53084 0.37614,-0.53084 0.0913,0 -0.11262,0.59186 -0.37907,1.10044 -0.81384,1.55336 -2.29844,2.56517 -4.15843,2.83409 -0.44239,0.064 -1.92755,0.1415 -3.30037,0.17229 -1.37281,0.0308 -2.51581,0.0673 -2.54,0.0811 -0.0242,0.0138 -1.91087,0.0507 -4.19263,0.0819 -2.28177,0.0312 -4.26297,0.0734 -4.40267,0.0937 -0.1397,0.0203 -2.2733,0.0761 -4.74133,0.12397 -2.46804,0.0479 -5.76369,0.12343 -7.32367,0.16789 -1.55998,0.0445 -3.84598,0.10221 -5.08,0.12837 -1.23402,0.0261 -3.36762,0.0831 -4.74133,0.12655 -1.37372,0.0435 -3.29777,0.10014 -4.27567,0.12597 -4.65447,0.12297 -10.36574,0.29032 -13.16567,0.38579 -1.37371,0.0468 -3.31681,0.10311 -4.318,0.12504 -1.00118,0.0219 -2.44898,0.0587 -3.21733,0.0817 -0.76835,0.023 -2.159,0.0618 -3.09033,0.0862 -1.96908,0.0516 -3.73731,0.10418 -5.75734,0.17126 -0.79163,0.0263 -2.27753,0.0639 -3.302,0.0836 -1.02446,0.0197 -2.77706,0.0751 -3.89466,0.12324 -1.96531,0.0846 -4.59697,0.15315 -8.29734,0.21612 -5.29567,0.0901 -6.93415,0.12609 -7.66233,0.16822 -0.44238,0.0256 -1.68063,0.0642 -2.75166,0.0859 -1.07104,0.0216 -2.69029,0.0614 -3.59834,0.0883 -0.90805,0.0269 -2.47015,0.0657 -3.47133,0.0861 -1.00118,0.0204 -2.48708,0.0546 -3.302,0.0759 -0.81492,0.0213 -2.68182,0.0596 -4.14867,0.0851 -2.57084,0.0447 -3.53542,0.0721 -6.18066,0.17522 -0.67522,0.0263 -1.30387,0.0412 -1.397,0.0329 -0.0931,-0.008 -0.26459,-0.0138 -0.381,-0.0125 -0.43939,0.005 -4.77156,0.0981 -6.51934,0.14018 -8.97522,0.21612 -9.66606,0.22509 -9.78404,0.12718 -0.0811,-0.0673 -0.16542,-0.0559 -0.31601,0.0428 -0.1879,0.12312 -0.21499,0.123 -0.31826,-0.001 z m -114.58759,-3.05531 c -0.0689,-0.27453 -0.0442,-0.29926 0.1542,-0.1542 0.14173,0.10364 0.14484,0.12932 0.0296,0.24458 -0.11526,0.11526 -0.13455,0.10577 -0.18378,-0.0904 z m -4.43606,-50.152505 c 0,-0.116416 0.0192,-0.164041 0.0427,-0.105833 0.0235,0.05821 0.0235,0.153458 0,0.211667 -0.0235,0.05821 -0.0427,0.01058 -0.0427,-0.105834 z m -1.28337,-16.726662 c 0,-0.0726 0.0381,-0.108449 0.0847,-0.07967 0.0466,0.02878 0.0847,0.08818 0.0847,0.131995 0,0.04382 -0.0381,0.07967 -0.0847,0.07967 -0.0466,0 -0.0847,-0.0594 -0.0847,-0.131995 z m -0.127,-1.900005 c -0.0288,-0.04657 -0.012,-0.08467 0.0373,-0.08467 0.0493,0 0.0897,0.0381 0.0897,0.08467 0,0.04657 -0.0168,0.08467 -0.0373,0.08467 -0.0205,0 -0.0609,-0.0381 -0.0897,-0.08467 z m -0.12442,-1.8161 c -0.002,-0.182143 0.0227,-0.224468 0.0909,-0.156328 0.067,0.06697 0.0677,0.137736 0.003,0.249767 -0.0797,0.137041 -0.0912,0.125518 -0.0934,-0.09344 z m -0.0754,-1.189566 0.007,-0.508 0.073,0.371636 c 0.0437,0.222664 0.041,0.426305 -0.007,0.508 -0.0557,0.09533 -0.0777,-0.0165 -0.073,-0.371636 z m -0.0437,-0.68061 c -0.029,-0.07567 -0.0495,-0.201134 -0.0455,-0.278816 0.004,-0.07768 0.0408,-0.02885 0.0819,0.1085 0.0798,0.267234 0.0516,0.399483 -0.0363,0.170316 z m -0.0394,-0.801057 c 0,-0.116417 0.0192,-0.164042 0.0427,-0.105833 0.0235,0.05821 0.0235,0.153458 0,0.211666 -0.0235,0.05821 -0.0427,0.01058 -0.0427,-0.105833 z m -0.26737,-3.339338 c 0,-0.11916 0.0381,-0.216662 0.0847,-0.216662 0.0466,0 0.0847,0.07395 0.0847,0.164338 0,0.09038 -0.0381,0.187884 -0.0847,0.216662 -0.048,0.02968 -0.0847,-0.04145 -0.0847,-0.164338 z m -0.078,-0.943381 c 0.004,-0.09864 0.0241,-0.118695 0.0512,-0.05116 0.0245,0.06112 0.0215,0.134146 -0.007,0.162281 -0.0281,0.02813 -0.0481,-0.02188 -0.0445,-0.111125 z m -0.11252,-2.030934 c -0.0349,-0.03552 -0.0623,-0.201091 -0.0609,-0.367961 0.002,-0.249936 0.018,-0.276902 0.0901,-0.15306 0.097,0.166649 0.0715,0.623324 -0.0292,0.521021 z m -0.23154,-2.68218 c 9.8e-4,-0.208805 0.0211,-0.244543 0.0834,-0.148167 0.10755,0.166412 0.10755,0.423333 0,0.423333 -0.0466,0 -0.0841,-0.123825 -0.0834,-0.275166 z m -0.086,-1.169162 c 0,-0.09588 0.0381,-0.150783 0.0847,-0.122005 0.0466,0.02878 0.0847,0.10723 0.0847,0.174329 0,0.06711 -0.0381,0.122004 -0.0847,0.122004 -0.0466,0 -0.0847,-0.07845 -0.0847,-0.174328 z m -0.0746,-1.243838 c 0.009,-0.358979 0.017,-0.374896 0.0746,-0.148167 0.0953,0.374497 0.0953,0.550333 0,0.550333 -0.0466,0 -0.0802,-0.180975 -0.0746,-0.402166 z m -0.0434,-0.622885 c -0.0821,-0.258893 -0.11871,-1.430282 -0.0447,-1.430282 0.043,0 0.0781,0.150148 0.0781,0.333671 0,0.183515 0.0331,0.354127 0.0736,0.379129 0.0808,0.04992 0.0664,0.699482 -0.0173,0.783209 -0.0287,0.02873 -0.0691,-8.47e-4 -0.0896,-0.06573 z m -0.13592,-1.980615 c 0,-0.116417 0.0146,-0.211667 0.0325,-0.211667 0.0178,0 0.0507,0.09525 0.0729,0.211667 0.0222,0.116416 0.008,0.211666 -0.0325,0.211666 -0.0401,0 -0.0729,-0.09525 -0.0729,-0.211666 z m -0.0789,-1.316567 c 0.005,-0.27432 0.0114,-0.280332 0.0988,-0.09884 0.0688,0.1429 0.0674,0.219024 -0.006,0.2921 -0.0753,0.07534 -0.0975,0.0294 -0.0931,-0.19326 z m -0.041,-0.661738 c -0.0365,-0.05901 -0.0434,-0.130158 -0.0155,-0.158106 0.0758,-0.07578 0.1584,0.03567 0.11747,0.158445 -0.0287,0.08604 -0.0486,0.08597 -0.10197,0 z m -0.0811,-0.586901 c -0.023,-0.03715 -0.007,-0.122877 0.036,-0.1905 0.0607,-0.096 0.0781,-0.08119 0.0791,0.06754 0.001,0.195834 -0.0417,0.241782 -0.11512,0.122961 z m -0.0741,-1.31522 c -0.10001,-0.244281 -0.0811,-0.531411 0.0278,-0.422487 0.0502,0.05021 0.0788,0.200702 0.0635,0.334433 -0.0228,0.199568 -0.0392,0.21535 -0.0913,0.08805 z m -0.14687,-1.90307 c -7.6e-4,-0.221945 0.0319,-0.344339 0.0834,-0.312505 0.1074,0.06638 0.1074,0.384142 0,0.550334 -0.06,0.09285 -0.0824,0.02892 -0.0834,-0.237829 z m -0.12352,-1.687559 c -0.0282,-0.314757 -0.0703,-0.750426 -0.0936,-0.968163 -0.0386,-0.360824 0.0544,-0.601083 0.16405,-0.423689 0.0969,0.156853 0.15939,1.853709 0.0703,1.908801 -0.0579,0.03579 -0.10762,-0.146837 -0.14073,-0.516949 z m -0.21644,-2.900612 c 0,-0.154432 0.0351,-0.242274 0.0847,-0.211667 0.0466,0.02878 0.0847,0.124028 0.0847,0.211667 0,0.08764 -0.0381,0.182888 -0.0847,0.211666 -0.0495,0.03061 -0.0847,-0.05723 -0.0847,-0.211666 z m -0.0817,-2.365104 c -0.11038,-0.206248 -0.11832,-0.663694 -0.01,-0.551663 0.0911,0.09388 0.21796,0.715433 0.14599,0.715433 -0.0268,0 -0.0882,-0.07369 -0.13642,-0.16377 z m -0.21502,-2.212163 c -0.0563,-0.786655 -0.0319,-1.028869 0.0914,-0.905637 0.0949,0.09488 0.14666,1.646852 0.0568,1.702385 -0.0563,0.03482 -0.10888,-0.247633 -0.14818,-0.796748 z m -0.15163,-2.026733 c -0.13801,-1.387467 -0.16205,-2.032 -0.0758,-2.032 0.14187,0 0.29985,1.830679 0.19728,2.286 -0.0623,0.276521 -0.0704,0.259537 -0.1215,-0.254 z m -0.2263,-2.610553 c -0.002,-0.181119 0.0333,-0.270222 0.0979,-0.248708 0.15646,0.05215 0.16737,0.183718 0.0303,0.365014 -0.11899,0.157362 -0.12559,0.151368 -0.12814,-0.116306 z m 0.0107,-0.860781 c 0,-0.116416 0.0192,-0.164041 0.0427,-0.105833 0.0235,0.05821 0.0235,0.153458 0,0.211667 -0.0235,0.05821 -0.0427,0.01058 -0.0427,-0.105834 z m -0.11812,-0.945159 c -0.0517,-0.483853 0.0667,-0.610591 0.13036,-0.139438 0.0271,0.200711 0.0177,0.396808 -0.0209,0.435771 -0.0386,0.03896 -0.0879,-0.09439 -0.10945,-0.296333 z m -0.10335,-1.758391 c -0.0306,-0.04958 0.006,-0.175946 0.0809,-0.280797 0.13582,-0.189527 0.13628,-0.189146 0.0777,0.06335 -0.072,0.310227 -0.0878,0.33191 -0.15857,0.21745 z m 0.0105,-0.57023 c -0.031,-0.03104 -0.0564,-0.09581 -0.0564,-0.143934 0,-0.05305 0.0394,-0.04805 0.10018,0.0127 0.0551,0.05511 0.0805,0.11988 0.0564,0.143934 -0.0241,0.02406 -0.0691,0.01835 -0.10019,-0.0127 z m -0.2142,-2.12372 c -0.0554,-0.826558 -0.12072,-1.721908 -0.14506,-1.989666 -0.0279,-0.306375 -0.0119,-0.486834 0.043,-0.486834 0.16054,0 0.19247,0.293421 0.3064,2.815167 0.0774,1.71284 -0.0848,1.444117 -0.20435,-0.338667 z m -0.21199,-3.217333 c -0.0293,-0.174625 -0.0772,-0.888998 -0.10657,-1.587498 -0.04,-0.95123 -0.029,-1.24735 0.0435,-1.17976 0.13342,0.12432 0.2684,1.64432 0.16357,1.84193 -0.0537,0.10114 -0.0505,0.24381 0.009,0.4148 0.10923,0.313339 0.11997,0.828028 0.0173,0.828028 -0.0405,0 -0.0975,-0.142875 -0.12682,-0.3175 z m -0.16506,-3.124198 c -0.0318,-0.0318 -0.0541,-0.23248 -0.0495,-0.44592 l 0.008,-0.38805 0.11826,0.37713 c 0.10789,0.34404 0.0649,0.59884 -0.0771,0.45684 z m -0.0884,-1.18905 c -0.0298,-0.0298 -0.0541,-0.24591 -0.0541,-0.4803 0,-0.49382 0.123,-0.44327 0.20893,0.0859 0.0526,0.32419 -0.0256,0.52361 -0.15479,0.39444 z m -0.13881,-1.59225 c 0,-0.0699 0.0381,-0.127 0.0847,-0.127 0.0466,0 0.0847,0.0572 0.0847,0.127 0,0.0699 -0.0381,0.127 -0.0847,0.127 -0.0466,0 -0.0847,-0.0571 -0.0847,-0.127 z m -0.0345,-0.91017 c -0.0687,-0.67061 -0.21659,-2.89059 -0.21825,-3.2766 -9.4e-4,-0.21822 0.0231,-0.26775 0.095,-0.19582 0.0529,0.053 0.11518,0.47015 0.13828,0.9271 0.0649,1.28459 0.097,1.79544 0.15469,2.46065 0.0335,0.38688 0.022,0.61384 -0.0312,0.61384 -0.0464,0 -0.10876,-0.23813 -0.13858,-0.52917 z m -0.33414,-4.40267 c -0.0271,-0.1979 -0.0747,-0.8075 -0.10579,-1.35466 -0.0505,-0.88768 -0.0417,-0.99484 0.0819,-0.99484 0.11382,0 0.13794,0.0944 0.13527,0.52917 -0.002,0.29104 0.0276,0.86008 0.0653,1.26453 0.0377,0.40444 0.0551,0.77592 0.0385,0.8255 -0.0663,0.1988 -0.16874,0.0704 -0.21525,-0.2697 z m -0.16767,-2.83633 c -0.0395,-0.0655 -0.15916,-1.69463 -0.30939,-4.21217 -0.0472,-0.79163 -0.10724,-1.78223 -0.13334,-2.20133 -0.0261,-0.4191 -0.061,-1.00965 -0.0775,-1.31233 -0.0165,-0.30269 -0.053,-0.79799 -0.081,-1.10067 -0.10686,-1.15376 -0.20536,-2.83399 -0.16831,-2.87104 0.17451,-0.17452 0.26959,0.53397 0.3285,2.44771 0.0151,0.48895 0.0498,0.94615 0.0771,1.016 0.0274,0.0699 0.0458,0.37465 0.041,0.67733 -0.007,0.46496 0.17375,2.9173 0.31269,4.23333 0.0221,0.20955 0.0588,0.81896 0.0815,1.35424 0.0227,0.53528 0.0657,1.21156 0.0955,1.50283 0.0365,0.35602 0.0243,0.5296 -0.0371,0.5296 -0.0503,0 -0.1086,-0.0286 -0.12966,-0.0635 z m -0.85477,-12.48833 c -0.0274,-0.29104 -0.0899,-1.29117 -0.13886,-2.2225 -0.0489,-0.93134 -0.13552,-2.36009 -0.19241,-3.175 -0.0569,-0.81492 -0.0802,-1.63407 -0.0519,-1.82034 l 0.0516,-0.33866 0.0584,0.29633 c 0.0321,0.16298 0.0535,0.46778 0.0476,0.67733 -0.006,0.20955 0.0315,0.74781 0.0832,1.19614 0.0517,0.44832 0.10988,1.17222 0.12922,1.60867 0.0522,1.17812 0.20726,3.44528 0.26709,3.90503 0.0424,0.32576 0.028,0.40216 -0.0759,0.40216 -0.0955,0 -0.14094,-0.13499 -0.1781,-0.52916 z m -0.52313,-8.40723 c -0.0374,-0.27717 -0.0697,-1.05639 -0.0717,-1.73161 -0.003,-1.11998 0.013,-1.25737 0.18666,-1.56633 0.14246,-0.2534 0.18033,-0.28537 0.15042,-0.127 -0.20259,1.07279 -0.21311,1.28252 -0.12167,2.42502 0.0651,0.813 0.0683,1.24655 0.0101,1.35061 -0.0688,0.12298 -0.0992,0.0537 -0.15375,-0.35069 z m 0.50101,-4.27161 c 0.33619,-1.06862 1.16808,-2.19623 1.84566,-2.50178 0.68812,-0.3103 0.47301,0.0188 -0.58372,0.89312 -0.19699,0.16298 -0.51977,0.55597 -0.71729,0.8733 -0.42381,0.68091 -0.6041,0.92432 -0.54465,0.73536 z m 2.64087,-2.87866 c 0.0288,-0.0466 0.11675,-0.0841 0.19549,-0.0834 0.12338,10e-4 0.12562,0.0126 0.0162,0.0834 -0.16581,0.10715 -0.27789,0.10715 -0.21166,0 z"
         id="path1193"
         inkscape:connector-curvature="0" />
    </g>
  </g>
</svg>
